<svg xmlns="http://www.w3.org/2000/svg" viewBox="0 0 130.05 127.62"><title>btn-io</title><g id="レイヤー_2" data-name="レイヤー 2"><g id="レイヤー_1-2" data-name="レイヤー 1"><path d="M58.72,0c12,.86,22.17,5.18,31.62,11.13,5.71,3.59,11.51,7.51,16,12.42C113.12,30.88,120.43,38,125,47a45.69,45.69,0,0,1,4.87,15.4c.55,5.33,0,10.88-.61,16.37-.73,7-3.4,12.8-6.06,18.87-3.31,7.52-9.85,12.17-15.62,17.54-5.53,5.14-12.69,5.75-19.44,7.4-5,1.21-10.47,3.23-15.1,2.16s-9.13,2-13.65-.65c-1.51-.87-5.3-2.69-6.06,2a2.86,2.86,0,0,1-2.37,1.48c-6-1.09-12.09-1.86-17.77-3.87-3.57-1.26-6.36-4.63-9.66-6.82C11.76,109.13,6.84,96.83,2.59,84.42A49.58,49.58,0,0,1,.1,65.54C.9,53.16,3.33,41.05,11.87,31.08c3.19-3.72,5.18-8.51,8.58-12,3.88-3.94,8.65-7,13.16-10.32C40.89,3.48,49.31,1.19,58.72,0m.63,10C50.7,9.5,44,14.26,37.22,18.46c-8.43,5.22-14.54,12.89-19.72,21.1C12,48.27,8.3,57.85,8.75,68.39c.17,4.06,1.74,8,2.37,12.1,2.29,14.73,10.53,25.65,21.9,34.58a17.51,17.51,0,0,0,5.19,2.53c.82.28,1.91-.27,2.88-.45a13.5,13.5,0,0,0-.7-2.12c-1-2-.56-2.66,1.66-2.15a13.86,13.86,0,0,0,3,.28c2.38,0,5-.7,7.1,0,8.57,2.77,17.34,2.07,26,1.91,3.25-.06,6.44-1.54,9.7-2.13,5.81-1,10.29-4.56,14.91-7.79a40.57,40.57,0,0,0,15.67-22.66c2-7.1,1.52-15,1.4-22.52,0-3.33-1.46-6.91-3.1-9.9C110,37.77,100.21,28,89,19.87,80.7,13.87,71.34,9.6,59.35,10Z"/><path d="M71.24,103.91c-1.63-.25-2.79-.94-3.63-.67-10.42,3.38-19.77,1.75-29.35-3.85-12.22-7.15-16.62-17.93-17-31C21.1,61.73,24,56.17,29.69,52c3.18-2.33,5.84-4.72,10.12-4.44a5.07,5.07,0,0,1,5.08,4.27c.58,2.5-.78,3.65-3.17,4.92-3.88,2.06-8,4-10.2,8.55a20.62,20.62,0,0,0,3.79,22.12C42,94.69,50.36,96,59.6,93.62c.93-.23,1.94-1.12,2.69-.91,8,2.23,14.29-1.84,20.29-5.94,5.18-3.53,7.17-13.58,5.83-20.32-1.06-5.34-4.69-8.32-8.16-11.63-.74-.71-2.24-.56-3.29-1-1.77-.76-4-1.29-5.07-2.67-1.49-1.88-2.11-4.46-3.1-6.74,2-.19,4.13-.91,6-.49C84.6,46.1,91.35,52.19,95,61.45c2.43,6.22,3.75,13,2.41,19.53-1.54,7.51-4.68,14.46-12.54,18-3.76,1.68-7.1,4.37-11.61,3.77C72.82,102.66,72.32,103.49,71.24,103.91Z"/><path d="M56.22,38.81C58,49,57.39,58.58,57.47,68.17c0,.83-.06,1.67,0,2.49.17,2.24-.26,4.57-2.87,4.28a6.45,6.45,0,0,1-4.48-3.32,27.49,27.49,0,0,1-1.37-8.75c-.19-5.81.1-11.63-.11-17.43-.14-4-.85-7.95-1.15-11.94-.09-1.13.29-3.27.61-3.29,1.72-.16,3.58-.73,5.09,1.11C54.89,33.37,56.33,35.4,56.22,38.81Z"/></g></g></svg>