<svg xmlns="http://www.w3.org/2000/svg" viewBox="0 0 115.85 133.89"><title>btn05</title><g id="レイヤー_2" data-name="レイヤー 2"><g id="レイヤー_1-2" data-name="レイヤー 1"><path d="M114.65,90.61c0,10.51-2.18,19.79-9.81,26.55-8.24,7.31-17.61,13.56-28.44,15.67-6,1.16-13.07,2.34-18.94-2.14-.6-.46-1.87-.59-2-1.07-1.18-5.05-6-3.71-9.11-5.12a84.91,84.91,0,0,0-11-3.62c-7.7-2.23-12.26-8.46-17.41-13.8-5.77-6-9.74-13.27-13.32-20.73-4.35-9-5.95-19.23-3.44-28.3,3-11,5.65-22.56,13.21-32.06C21.65,16.87,29.87,9.61,40.89,5.3,45.05,3.68,49.09,1.85,53.47,1c9.88-2,19.1-1,28.07,4.39,11.81,7.11,19.62,17.46,25.29,29.46a106.38,106.38,0,0,1,8,25.51c1.83,9.48.47,18.89,1,28.31,0,.43-.78.9-1.2,2M20.76,34.9C16,43,13.06,51.76,10.75,60.78c-2.51,9.85-.18,19.26,4,27.93,3,6.14,7.47,11.64,11.85,17,2.9,3.52,6.09,6.89,10.65,8.84a57.69,57.69,0,0,0,20.49,5A62.67,62.67,0,0,1,72,121.38c3.69,1.06,6.79,1.75,10.12-.68,2-1.48,4.49-2.35,6.52-3.83,8.32-6.11,14.82-13.62,15.93-24.31.85-8.13.8-16.34,1.38-24.49.46-6.54-1.54-12.71-3.33-18.68C98.67,36.25,92.43,24.23,82,14.75c-5.49-5-11.81-7.39-19.1-6.68A55.74,55.74,0,0,0,52.1,10.53C38.92,14.6,29.28,23.33,20.76,34.9Z"/><path d="M48,57.12a39.27,39.27,0,0,0,5.12,3.8c2,1.1,4,2.15,5.6-1.21,1.48-3.17,3.84-5.93,5.89-8.81.74-1,1.64-2.56,2.64-2.71a11.91,11.91,0,0,1,6,.5c2.07.81,1.93,4.73.1,7.54-2.23,3.44-4.46,6.89-6.61,10.39-1.17,1.89.31,3,1.56,3.93,3,2.19,6.19,4.17,9.24,6.31a12.13,12.13,0,0,1,2.7,2.5c1.52,2,.46,4.83-2,4.89a15.14,15.14,0,0,1-5.62-1.42c-.89-.35-1.45-1.46-2.24-2.13-7.95-6.68-8.67-6.44-14.56,2.16-2.39,3.48-3.93,7.88-8.53,9.52-2.25.79-6.32,0-7.25-2-1-2.19-.46-4,1.34-6a117.28,117.28,0,0,0,9.27-11.77c.92-1.32,1.75-3.36-.62-4.75a107.54,107.54,0,0,1-9.9-6.22A40.84,40.84,0,0,1,34,55.49,2.55,2.55,0,0,1,34.07,53a2.92,2.92,0,0,1,2.47-1C40.3,53.49,44,55.19,48,57.12Z"/></g></g></svg>