<svg xmlns="http://www.w3.org/2000/svg" viewBox="0 0 118.64 116.67"><title>btn04</title><g id="レイヤー_2" data-name="レイヤー 2"><g id="レイヤー_1-2" data-name="レイヤー 1"><path d="M99.25,112a40.85,40.85,0,0,1-20.4,4.64c-3.17-.11-6.59-1.74-9.43-1-3.87,1-7.62,1-11.43,1A41,41,0,0,1,31,106.6C23.21,100.06,15.58,93,10.52,83.9A64.42,64.42,0,0,1,5.14,71.76,136.43,136.43,0,0,1,.19,51.94c-.82-5.33,1.11-10.5,4-15.15a32.74,32.74,0,0,0,3.29-5.51c1.85-4.94,5.19-8.68,8.4-12.75C21,12.06,27.71,8.55,34.68,5,40.6,2,46.77.71,53.37.15,66.22-.95,76.57,4,86.14,11.83c4.94,4,10.41,7.4,15.17,11.61,6,5.32,9.64,12.4,12.59,19.76.79,2,.62,4.32,1.35,6.33a52.36,52.36,0,0,1,2.83,26.15c-1,6.91-1.75,13.81-4.25,20.24C111.15,102.8,107.15,109,99.25,112M24.45,24.06c-6.82,6.39-9.86,15-13,23.35a19.28,19.28,0,0,0-1.2,10,90.5,90.5,0,0,0,9,25A53.49,53.49,0,0,0,32.32,98.24c9.07,7.44,18.86,12.37,31.11,8.49A38.46,38.46,0,0,1,71,105.46c3.07-.34,6,0,8.39,2.35,5.74-2.14,12.19-2.2,17.13-6.76,7.48-6.93,10.21-15.9,11-25.43a99.71,99.71,0,0,0,.31-17.72,52,52,0,0,0-3.93-15.29c-2.45-5.86-5.37-11.52-10.32-15.7-2.87-2.42-6.25-4.24-9.06-6.72A43.48,43.48,0,0,0,65.59,9.92c-9.72-2.34-18.58-.45-27,3.92C33.75,16.37,29.56,20.19,24.45,24.06Z"/><path d="M37.28,66.31c4.27-6,8.26-11.57,12.19-17.22a11,11,0,0,0,1.94-7.32c-.06-.88.43-2.55.75-2.57,2.88-.17,6-.71,8.62.15S64.28,43,64,46a6.28,6.28,0,0,0,1.3,3.76c4.79,6.82,8.47,14.44,14.89,20.06a9,9,0,0,1,2.44,3.94c1.11,3.58-1.56,6.64-5,5.18s-6.78-.89-10.15-1a95.14,95.14,0,0,0-13.08,0c-3.85.38-7.54-.61-11.38-.47-5.25.19-7.19-3.89-5.75-11.2M67,65.37c-2.3-3.19-5.09-6.14-6.7-9.64-1-2.15-1.24-1.4-2-.38-2.67,3.43-5.31,6.88-7.84,10.41a2.11,2.11,0,0,0,.32,2,4.86,4.86,0,0,0,2.52,1.3c5,.77,10.17-1.36,15,1.29.38-.87,1.07-1.77,1-2.62C69.25,67.14,68.22,66.58,67,65.37Z"/></g></g></svg>