<svg xmlns="http://www.w3.org/2000/svg" viewBox="0 0 119.9 119.07"><title>btn01</title><g id="レイヤー_2" data-name="レイヤー 2"><g id="レイヤー_1-2" data-name="レイヤー 1"><path d="M94.07,13.89c3.24,2.82,6.45,5.06,9,7.89A63.28,63.28,0,0,1,117.46,49c1.34,5.16,2.87,10.67,2.33,15.81-.84,8.07-1.3,16.79-6.19,23.59-4.3,6-8.61,12.49-15.54,16-6.41,3.23-11.73,8.47-18.92,10.23-1.51.37-3,.71-4.57,1-2.12.44-4.9.14-6.24,1.39-3.64,3.41-7.48,2.15-9.74-.31-3.11-3.39-7.09-3.82-10.7-4.55a25.43,25.43,0,0,1-8.23-2.88C31.9,104.52,23.22,101,17.32,93.63,12.79,87.94,8.56,82.16,6,75.16,4.42,70.83,1.69,67.06.78,62.27a40.9,40.9,0,0,1,0-16.05c.85-4.28,1.5-8.4,3.67-12.29,6-10.73,13.94-19.21,24.94-25.15A113.6,113.6,0,0,1,45.88,1.6C52.36-.68,59.1-.13,65.35.83a68,68,0,0,1,13.86,4c5.51,2.14,9.93,5.45,14.86,9M12.39,38.61a40.11,40.11,0,0,0-2.18,4.72A39,39,0,0,0,10,67.11a60,60,0,0,0,7.48,15c3.13,4.66,6.26,9.42,11,13,3.05,2.28,6.81,3.46,9.46,5.77,7.6,6.63,16.47,4.25,25,4.77,1.74-2.25,3-1,4.41.47a5.19,5.19,0,0,0,6.75.78c3-1.71,6-3.57,9.14-5.09a49,49,0,0,0,20-17.71c2.48-3.81,5-8.32,5.32-12.68.94-11.6.66-23.27-5.76-33.75-1.82-3-3.09-6.44-5.4-9a88,88,0,0,0-16.9-14.79c-7.28-4.73-15-4.78-23.11-4.69a37.66,37.66,0,0,0-16.94,4.33c-7.64,4-16,7.56-21,15.51C17.46,32,14.74,34.59,12.39,38.61Z"/></g></g></svg>