<svg xmlns="http://www.w3.org/2000/svg" viewBox="0 0 123.2 122.77"><title>btn02</title><g id="レイヤー_2" data-name="レイヤー 2"><g id="レイヤー_1-2" data-name="レイヤー 1"><path d="M.29,62.65A51.87,51.87,0,0,0,.27,57C-1.13,45.45,3.08,35.57,9.6,26.48c6.2-8.63,13.65-16.07,22.94-21.35a30.87,30.87,0,0,1,14-3.9C51.21,1,56,2.43,60.51.17c1-.47,3.42.11,3.79.89,1.52,3.14,4.58,2.94,7.09,4,10.27,4.5,20.45,9.25,28.4,17.5,4.83,5,10.25,9.74,14,15.52,4.14,6.45,7.82,13.51,8,21.67a48.43,48.43,0,0,0,1.2,7c1,5.77-1.67,11-2.71,16.43-1.83,9.46-7.87,17-14,24.14a20.87,20.87,0,0,1-7.76,5.27c-6.41,2.65-12.33,6.47-19.17,8.09-.55.13-1,.69-1.56.75-4,.47-8,1-12,1.24-5.23.27-10.05-.13-14.9-3.41-4.14-2.81-9.61-4-14.48-5.7A38.63,38.63,0,0,1,19,100.38c-2.89-3.82-4.95-8.62-10.19-10.23a3.18,3.18,0,0,1-2.27-3.82c.36-2.91-1-5.27-2.11-7.88-1.54-3.52-1.95-7.53-2.9-11.31C1.2,65.83.71,64.56.29,62.65m93.9.62a72,72,0,0,0,11.16-13.43c1.32-2,1.32-3.75,1.32-5.71s-1.12-2-2.34-1c-3.84,3.33-7.74,6.62-11.37,10.17-2.44,2.39-4.44,5.21-6.66,7.82-2.63,3.08-5.43,6-7.91,9.22C73.15,77.1,68.07,84,62.93,90.77,59.11,95.84,55.38,101,51.41,106c-1.15,1.44-1.3,2.21,0,3.53,1.67,1.65,2.49.31,3.49-.69,2.5-2.5,5-5,7.51-7.49A223.37,223.37,0,0,0,84.5,76.74a144.16,144.16,0,0,0,9.69-13.47M61,38.86a18.41,18.41,0,0,0,2.63-2.67c4-6.08,9.58-10.62,14.49-15.82.66-.7,3.39-1.2,1.36-3-1.4-1.21-3-3.21-5.21-.6-4.5,5.46-9.57,10.52-13.59,16.31C53.74,43.08,45.58,52,37.55,61c-5.61,6.3-11.5,12.35-17.21,18.56-.77.84-1.1,2.07-1.81,3-1.52,1.92-.86,3.44.79,4.72,1.87,1.45,2.41-.7,3.44-1.44a6.85,6.85,0,0,0,1.76-1.76c8-11.92,17.76-22.36,27-33.26,3.1-3.66,5.92-7.55,9.5-12M62.89,72C58,77.32,53.13,82.58,48.3,87.9q-4.94,5.43-9.72,11a10,10,0,0,0-1.34,2.57c-1.54,3.59-.52,5.64,3.33,6.2,1.5.22,4.1,1.16,2.44-2.56-.79-1.79-.39-4.17,1.55-6.17,2.89-3,5-6.66,7.64-9.91C56.4,83.85,60.94,78.94,65,73.64c8.32-11,16.84-21.75,26.58-31.52,2.65-2.65,5.34-5.28,7.93-8a1.69,1.69,0,0,0,.06-1.67c-.3-.35-1.41-.57-1.66-.32C92.51,37.38,86.7,42.28,82,48.11,75.85,55.85,69.94,63.79,62.89,72M81,35.11c2.65-2.65,5.32-5.29,7.94-8a10.44,10.44,0,0,0,1.12-1.75c-.79-.1-1.75-.52-2.34-.23a10.25,10.25,0,0,0-2.8,2.3c-8,8.76-16,17.47-23.84,26.37C53.63,62.33,46.37,71,39,79.65c-2.37,2.76-4.82,5.46-7,8.34a54.9,54.9,0,0,0-4.79,7.39c-.37.67.42,2,.67,3A11.19,11.19,0,0,0,29.16,97c1.8-2.58,3.33-5.38,5.36-7.76C40.59,82.1,46.84,75.15,53,68.13S65.47,54.15,71.55,47c3.11-3.63,5.92-7.53,9.49-11.93m-31.3-6.26c-1.32,1.32-3,2.45-3.92,4-4.81,7.77-11,14.41-17.23,21A87.25,87.25,0,0,0,22,61.7c-.68.9-.73,2.26-1.07,3.42a13.72,13.72,0,0,0,3-1.74c.8-.79,1.09-2.09,1.84-3,6.14-7,12.44-14,18.48-21.09,5.45-6.42,10.63-13.07,15.92-19.62,1.63-2,3.34-4,4.8-6.14.49-.73.32-1.92.45-2.9-.73.33-1.72.46-2.16,1-4.33,5.47-8.57,11-13.47,17.15M25.33,39.49c-2.94,3.36-6,6.61-8.78,10.12a87.82,87.82,0,0,0-6.16,9.32c-.28.48.57,1.63.89,2.47a12.31,12.31,0,0,0,1.52-1.35c7-8.36,13.85-16.76,20.85-25.09,3.14-3.74,6.46-7.32,9.69-11a3.07,3.07,0,0,0,.74-.94c.11-.36.1-1-.12-1.15-.45-.31-1.27-.69-1.59-.49a11.74,11.74,0,0,0-2.27,2.08c-4.72,5.12-9.43,10.25-14.77,16m67.6,55.08c-1,1.45-2,3-3.1,4.33-2.16,2.67-4.49,5.2-6.55,7.94-.49.65-.17,1.91-.22,2.89a7.2,7.2,0,0,0,2.17-1.26c7-8.65,13.41-17.79,21.64-25.41a24.6,24.6,0,0,0,4-5.22,8.67,8.67,0,0,0,.84-3.37,4.49,4.49,0,0,0-.45-1.67,8,8,0,0,0-1.31,1.06c-5.46,6.68-10.9,13.39-17,20.71M22.2,27.6C20.44,29.36,18.56,31,17,32.94c-.51.63-.24,1.9-.32,2.88a7.37,7.37,0,0,0,2.17-1.16c3.88-4.18,7.59-8.53,11.53-12.64,1.64-1.71,3.79-2.91,5.57-4.49.42-.38.39-1.38.33-2.08,0-.14-1.33-.49-1.56-.26-4,3.88-7.93,7.84-12.5,12.41m50.94,80.55v-2.27c-.72.28-1.65.37-2.1.89-1.28,1.46-2.31,3.14-3.53,4.66A11.9,11.9,0,0,1,65.63,113a7.09,7.09,0,0,0,2.45.92,21.27,21.27,0,0,0,4-.74c3.58-.79,3.58-.79,1.08-4.83M48.49,10.07c-.14.69-.57,1.5-.35,2s1.06,1.13,1.63,1.67a10,10,0,0,0,.56-2.17C50.34,11.11,50,10.59,48.49,10.07Z"/></g></g></svg>