<svg xmlns="http://www.w3.org/2000/svg" viewBox="0 0 105.67 107.73"><title>btn03</title><g id="レイヤー_2" data-name="レイヤー 2"><g id="レイヤー_1-2" data-name="レイヤー 1"><path d="M36,98.09c-6.3-1.61-11.87-4-16.55-7.88C10.2,82.49,3.49,73,.4,61.21A14.23,14.23,0,0,1,0,57c.36-8.17.69-16.34,1.27-24.5a20.9,20.9,0,0,1,5.5-12C15.08,11,25,4.1,37.58,1.22,44.24-.3,50.77-.11,57.33.26a27.62,27.62,0,0,1,10,2.87C77,7.77,86.47,12.59,93.91,20.69c5.1,5.54,7.85,12.11,10,19.06,2.42,8,2.08,16.49.9,24.44-.84,5.7.27,11.54-1.94,17.23a29.33,29.33,0,0,1-9.55,13,64,64,0,0,1-21.7,11.24,48.07,48.07,0,0,1-9.14,2c-1.64.18-3.9-.19-5-1.23-6-5.59-14-5.59-21.43-8.36M63.84,10.77a28.65,28.65,0,0,1-3.49-.65c-9.51-3-18.13-.33-27,3.31-5.94,2.44-10.21,6.78-15,10.5a19.09,19.09,0,0,0-7,11.94c-1,6.62-.87,13.39-1.42,20.08-.89,10.94,4.73,19.41,11.8,26.24A38,38,0,0,0,48.52,92.67c4.77,0,8.83.84,11.81,4.75,1,1.34,1.91,1.49,3.22.39a5,5,0,0,1,2.59-1.24c6.81-.41,11.88-4.76,17.28-8,3.19-1.92,6.68-5.18,7.66-8.53,1.65-5.62,3.37-11.49,2.85-17.63-.27-3.31-.74-6.85.1-10,1.55-5.65-.09-10.84-1.5-15.95C88.62,22.22,77.66,15.47,63.84,10.77Z"/><path d="M71,49.26C71,55,73.49,60,74.46,65.16c.58,3.14-.63,5-3.84,5.08q-14.73.6-29.46,1.24c-1.21,0-2.24-.24-2.48,1.74s0,4.79-3.33,4.5c-2.68-.22-6.29-3.14-6.54-5.35-.51-4.61-1.09-9.22-1.22-13.84-.14-5.22-.4-10.32-2.46-15.24-.59-1.42-.31-3.32-.05-4.95.36-2.29,1.3-3.53,4-4.65,8.69-3.57,17.61-3.6,26.63-3.46a30.26,30.26,0,0,1,7.59,1.25,7.14,7.14,0,0,1,5.49,5.76c.69,3.89,1.27,7.81,2.21,12M40.68,62.72c5.63,0,11.27.16,16.89-.08a11.88,11.88,0,0,0,6-1.89c.54-.37-.54-3.19-1-4.85-.26-.92-1-1.71-1.19-2.63a117.23,117.23,0,0,1-2.43-12.1c-.24-2-.87-2.34-2.61-2.26-5.48.24-10.91,0-16.42,1.08-5.22,1-5.7,1.94-4.61,6.34a31.59,31.59,0,0,1,.9,9.55C36,59,37.18,61,40.68,62.72Z"/></g></g></svg>