<svg xmlns="http://www.w3.org/2000/svg" viewBox="0 0 106.61 112.08"><title>btn06</title><g id="レイヤー_2" data-name="レイヤー 2"><g id="レイヤー_1-2" data-name="レイヤー 1"><path d="M93.17,94.67c-7,7.21-14.7,12.94-23.81,16.07a26,26,0,0,1-12.65,1c-7.61-1.42-15-4-22.48-6.07C22.22,102.28,14.08,94.38,7.65,84,1,73.27-.93,61.6.39,49.52c1-9.44,2.55-19.09,7.69-27.42C14.72,11.35,24,3.11,36.47.78,44-.62,52,.05,60,1.35c16,2.59,26.23,12.22,35.88,23.8,5.22,6.26,7.08,13.39,8.34,21,.57,3.46,3.23,7.54,2.1,10.08-1.94,4.37,2.06,8.26-.62,12.53-1.53,2.45-.51,6.36-1.17,9.5-1.42,6.82-6.32,11.41-11.31,16.4M75.33,95C83,91.21,88.05,84.83,92.89,78.12c3-4.14,2.48-8.76,2.46-13.36,0-8.47.51-16.93-2.41-25.22A47.19,47.19,0,0,0,75.59,16.11c-5.88-4.25-12.41-5.93-19.08-6.66a52.27,52.27,0,0,0-16.39.73c-5.65,1.18-9.66,4.19-13.84,7.43C20.63,22,16.22,27.18,13.87,34.23c-2.09,6.26-2.42,12.78-3.93,19-1.66,6.88.69,12.8,1.37,19.16.46,4.33,3.47,7,5.27,10.35,3.1,5.85,7.4,10.74,13.69,13.48,1.42.62,3.37,1.79,3.64-.76.35-3.27,1.21-3.22,3.2-1.17,3.36,3.46,7.16,5.66,12.29,5.15,1.38-.14,2.89.94,4.34,1.47,2,.72,4.16,2.37,5.92,2C65.21,101.79,70.74,100.18,75.33,95Z"/><path d="M27.76,55.54c-.31-13.68,5.08-19.69,17.29-24.42,4-1.56,7,1.33,10.47.64,5.26,4.11,12.24,6.57,14.67,13.46C71.49,48.89,71.55,53,72,57c.13,1.15-.38,2.36-.42,3.55-.21,6.66-3.07,10.42-9.59,12.58a20.41,20.41,0,0,0-3.76,1.48c-3.76,2.14-7.54,2.87-11.68,1-4.42-1.94-9.46-2.3-13.12-6.13a19,19,0,0,1-5.68-13.93m10-3.12c0,2.7.06,5.4,0,8.1-.09,3,1.83,4.27,4.3,5,.94.29,2,.13,2.95.41,7,2,14.47-2.39,16.66-9.28.95-3-.37-5.56-.3-8.36.09-3.36-7.91-8.86-11-7.67C45,42.71,39.84,45.33,37.77,52.42Z"/></g></g></svg>