<svg xmlns="http://www.w3.org/2000/svg" viewBox="0 0 74.19 120.17"><title>choice-a</title><g id="レイヤー_2" data-name="レイヤー 2"><g id="レイヤー_1-2" data-name="レイヤー 1"><path d="M70.81,8.46c.16,4.27.37,8.29.44,12.32,0,1.5-.47,3-.4,4.5.21,4.49.68,9,.87,13.45.15,3.31-.08,6.63.07,9.93.11,2.33.8,4.64.84,7,.06,3.16-.42,6.34-.36,9.5,0,3.5.44,7,.69,10.49,0,.36.19.72.19,1.09.17,9.16.31,18.32.5,27.48,0,1.45.32,2.9.44,4.35,0,.69.25,1.74-.1,2-3.54,2.83-5.09,8-10.24,8.9a36.36,36.36,0,0,1-13.6.12c-6.23-1.29-12.65-2.8-19-1.61-6.09,1.14-12.12.53-18.17.76-2.82.11-6.87-3-7.91-5.69-1-2.49-2.15-4.91-3-7.44A24.33,24.33,0,0,1,1.35,101C.86,97.11.21,93.25,0,89.36c-.11-2.28.61-4.59.76-6.91C.86,81.21.43,80,.43,78.69c0-6.75-.14-13.5,0-20.25.22-10.35.61-20.7.91-31,.18-5.88.47-11.76.42-17.63a9.68,9.68,0,0,1,3.6-8C7.39.29,10.69.55,13.44.17a28.85,28.85,0,0,1,3.48,0c1.34,0,2.68-.22,4-.12,3,.23,6,.67,9,.88A15.13,15.13,0,0,0,33.24.48,51.41,51.41,0,0,1,49.33.85a45.26,45.26,0,0,0,10.85,0C64.51.5,69,3.38,70.81,8.46m-11.5,1.88c-.49-.31-1-.84-1.49-.9a124.4,124.4,0,0,0-13-1.37c-7.12-.12-14.26.29-21.39.36A72.15,72.15,0,0,1,15.64,8a2.49,2.49,0,0,0-2.85,2,30.14,30.14,0,0,0-1.08,5.88c-.28,3.91-.41,7.84-.49,11.77-.2,9.08-.33,18.17-.48,27.25,0,1.59,0,3.18,0,4.77,0,4.69,0,9.39,0,14.08,0,.92.25,1.85.22,2.76-.21,6-.69,12.06-.62,18.08a93.56,93.56,0,0,0,1.34,11.62c.23,1.67.74,3.23,2.92,3.18,6.12-.16,12.29.13,18.32-.63,3.68-.47,6.88.71,10.32,1,5,.39,10,.94,15,.9,1.37,0,3.37-1.61,4-3a21.86,21.86,0,0,0,2.05-10.9c-.39-3.74-.44-7.53-.5-11.3-.08-4.87.66-9.87-.18-14.59-1.1-6.16-.48-12.33-1.23-18.45-.27-2.27-.4-4.56-.47-6.84-.2-5.91-.3-11.81-.49-17.72-.1-2.83-.3-5.66-.47-8.48-.14-2.44-.26-4.88-.5-7.31C60.4,11.55,59.86,11.07,59.31,10.34Z"/></g></g></svg>