<svg xmlns="http://www.w3.org/2000/svg" viewBox="0 0 188.95 194.07"><title>direction</title><g id="レイヤー_2" data-name="レイヤー 2"><g id="レイヤー_1-2" data-name="レイヤー 1"><path d="M66.32,169.11c-1.25-5.32-2.53-10-3.74-14.72-.88-3.39-1.68-6.81-2.52-10.22s-1.53-6.86-2.53-10.22c-1.34-4.48-3.44-6.06-7.53-4.83-12,3.61-24.3,3.67-36.63,3.73a13.28,13.28,0,0,1-7.34-2c-1.41-.87-2.21-1.3-2.44-3.36C2.54,118,1.86,108.57,1,99.12.36,93,.1,86.94,0,80.84c-.12-7.75,3-11.51,10.79-11.72,5.42-.15,10.88-1,16.46.84,3.13,1.05,7.13-.44,10.73-.84q6-.65,11.92-1.42c3-.38,5.94-.7,8.87-1.28,3.11-.62,2.81-3.25,2.49-5.4-1-7-1.9-14.16-5.33-20.27-2.4-4.28-1.47-8.91-3.34-13a24.34,24.34,0,0,1-1.28-4.47c-1.11-4.57.42-8.4,5.12-10.54C64.78,8.89,73.17,5.34,82.69,5c5.85-.23,11.69-1.75,17.45-3.07a59,59,0,0,1,18-1.75c4.83.4,10.46,7.16,10.74,12.75.48,9.29,3,18.36,2.61,27.75-.14,3.35,1,6.74,1.11,10.12.24,5.38,2.55,7.68,8.08,6.87,5-.74,9.88-.27,14.84,0,5.4.28,10.85-.17,16.26.13,5.93.32,7.91,3.17,9.84,9.14,2.5,7.72,1.77,15.82,3.7,23.49a84.13,84.13,0,0,1,2.48,22.77c0,1.9,1.05,3.81,1.12,5.74.12,3-2.16,6.12-4.76,6.33-7.41.59-14.52,2.91-22.12,2.77-6.52-.13-13.07,1.48-19.61,2.3-3.57.44-7.15,1-10.74,1.18-2.84.11-4.05,1.08-4.09,4a72.31,72.31,0,0,0,2.29,20.33c1,3.63,1,7.52,1.53,11.28.33,2.34,1,4.64,1.2,7,.58,5.51-.86,9.77-6,13.15-6.68,4.42-13.74,6.91-21.58,6.83-8.8-.09-17.61-.54-26.38-1.28-3.56-.31-6.62-1.78-7.51-6.33-1.12-5.67-3.21-11.16-4.88-17.35m9.39,1.25c1,3.32,2.07,6.65,3.14,10,1.13,3.52,3,4.91,6.78,5,2.51.08,5.21-.6,7.48.12,8.34,2.65,16.1,1.14,23.7-2.42,5-2.33,6.73-5.25,5.85-9.35s-1.86-8-2.46-12.11c-.64-4.38-.71-8.85-1.35-13.23-.6-4.07-2-8-2.35-12.12s-1.41-8.89,3.27-11c3.56-1.6,6.91-5.44,11.76-2.6,1.24.73,3.4.52,4.92,0,7-2.21,14.23-2.45,21.51-2.51a110.67,110.67,0,0,0,15.74-1.32c1.42-.22,4.23-.14,4.05-3.19-.45-7.75-.24-15.61-1.47-23.23-.83-5.08-2.29-10-2.39-15.27a30.15,30.15,0,0,0-1.66-8c-.5-1.59-1.2-3.16-3.74-2.8-2.86.41-6.06.82-8.7,0-7.58-2.47-15.08-1.09-22.46,0-7.65,1.17-15.16-2.14-14.7-11.6.16-3.33.85-7-.16-10-1.69-5-1.12-10.25-2.16-15.32-1.1-5.32-.84-10.91-1.51-16.34-.18-1.5-1.44-4-2.39-4.07-3.65-.36-7.59-.65-11,.37C99,11.33,92.74,12.83,86.07,12.65c-6.24-.16-11.95,2.08-17.45,4.68A18.76,18.76,0,0,0,63,21.75,6.18,6.18,0,0,0,61.43,26c.25,2.69,1.27,5.29,1.81,8,1.35,6.68,5.51,12.47,5.87,19.51.15,2.84,2.17,5.66,2,8.42C71,65.64,74,70.3,69.05,73a15.25,15.25,0,0,1-6,2.1,181.79,181.79,0,0,0-27.28,3.7A2.34,2.34,0,0,1,34.6,79c-6.59-2.67-13.45-.56-20.15-1.21C12,77.5,11,78.59,9.71,81.1c-1.92,3.74.23,6.55.33,9.74.28,9.64.78,19.26,1.2,28.9.16,3.62,2,5.62,5.66,5.49,3.18-.11,6.32-.87,9.5-1.17,5.34-.5,11,1.37,15.91-2.45.65-.51,2-.07,3.07-.07,3.34,0,6.73.35,10-.08,6.26-.82,8.87,2.32,10.89,8.11,1.47,4.21,2.69,8.51,3.77,12.83C72.28,151.41,74.69,160.39,75.71,170.36Z"/><path d="M147.38,98.69c3.36-2.52,6.39-4.76,9.46-6.94,1.66-1.17.07-1.92-.49-2.15A96.63,96.63,0,0,0,145,85.35a5.11,5.11,0,0,1-3.64-2.59c-1.21-2.09-.72-3,1.29-3.81,5.45-2.35,10.23.38,15.05,2a24.63,24.63,0,0,1,6.94,4.32,29.88,29.88,0,0,1,5.2,5.28c1.16,1.51.44,3.07-1,4.23C164.87,97.89,161,101.09,157,104c-2.34,1.71-4.8,3.76-8.07,1.82-1.21-.71-3.14-1.06-3.57-2.07C144.61,102.09,145.25,100.16,147.38,98.69Z"/><path d="M102.94,156.9c4.8-2.27,7-1,7.25,3.34a11.09,11.09,0,0,1-3.91,9.63,45,45,0,0,0-3.53,3.51c-3.73,4.11-6.87,4.71-10.54.75s-6.43-8.45-9.22-13c-.67-1.08-1.63-3.37.8-4.61,2-1,3.82-2.22,5.81.1,1.73,2,4,3.68,5.43,5.88,1.66,2.53,3.09,2.07,4.47.22C100.76,161.07,101.6,159.08,102.94,156.9Z"/><path d="M83.85,33.91a31.34,31.34,0,0,1,2.5-4.58c1.77-2.89,3.71-3.76,6.48-2,5.62,3.6,11.06,7.5,16.47,11.42,1.64,1.18,3.37,2.81,1.49,5.07-1.72,2.07-3.79,1.78-5.93.46-3-1.82-6.32-3.17-8.93-5.4-2.14-1.84-3.24-1.16-4.4.52-1.43,2.07-2.69,4.27-3.91,6.47s-2.18,3.63-5.27,2.35-2.61-3.15-1.95-5.17C81.34,40.16,82.68,37.37,83.85,33.91Z"/><path d="M41.6,107.45c.07,4.2-.71,4.93-3.83,4.06-1.11-.31-2.43-.47-3.22-1.18-2.74-2.49-6.25-4.78-7.59-7.93-1.05-2.51,2.63-4.78,4.63-6.84,1.31-1.34,2.67-2.63,4-4,2.26-2.37,4.89-3,7.72-1.29,1.19.72,2.69,1.92,2.85,3.07.17,1.32-.73,3-1.63,4.18-.79,1-2.37,1.37-3.35,2.29C37.75,103,37.79,103.09,41.6,107.45Z"/></g></g></svg>