<svg xmlns="http://www.w3.org/2000/svg" viewBox="0 0 240.79 272.19"><title>emblem01_1</title><g id="レイヤー_2" data-name="レイヤー 2"><g id="レイヤー_1-2" data-name="レイヤー 1"><path d="M98,3.17c5.1-.8,9.95-.3,14.59-1.6a1.79,1.79,0,0,1,.4,0C118,1.29,123,1,128,.77,137.34.45,146.73.15,156.12,0a71.54,71.54,0,0,1,8.1.76c2.57.25,5.22-.59,7.72.75.63.34,1.58,0,2.39.06,6.18.26,12.4.18,18.52.91,4.65.56,9.47,1.09,13.51,4.14,4.69,3.55,7.33,8.44,9.77,13.57,2.2,4.65,3,9.72,4.57,14.56.72,2.28.66,4.81,1,7.21,1,6,1.21,12.12,1.75,18.19.63,7.14,1.4,14.24,1.56,21.42.07,3.35,1.26,6.66,1.95,10a15.16,15.16,0,0,1,.34,1.86c.29,4.17.38,8.37.87,12.51.38,3.24,1.27,6.42,1.9,9.63.45,2.37,1.24,4.75,1.18,7.11-.16,5.6,1.94,10.75,2.82,16.13.25,1.49.44,5.44.53,7.16a60,60,0,0,0,1,8c.75,4.11,2.44,8,2.21,12.34a12.67,12.67,0,0,0,.59,2.55q.54,3,1,6c.11.77-.12,1.69.21,2.32,2.75,5.15.26,9.08-2.82,12.93-1,1.29-2,2.64-3,4-.13.19,0,.59-.15.73-3.26,3-6.48,6.14-9.81,9.11a145.11,145.11,0,0,0-12.54,12.75c-1.37,1.55-2.78,3.07-4.12,4.65-2.77,3.26-5,7.19-8.37,9.66-3.8,2.81-6.17,7-10.42,9.36-3.35,1.88-5.87,5.21-8.86,7.76-1.84,1.56-3.9,2.86-5.84,4.29s-4.23,2.88-6.12,4.57c-2.4,2.15-4.74,4.07-8,4.92-2.2.57-4.23,2.17-6.1,3.6-3.53,2.7-7.06,5.27-11.61,5.94-1.24.18-2.52.89-3.68.71-5.44-.82-10.83-1.78-15.92-4.17-3.9-1.84-8.11-3-12.13-4.61a71,71,0,0,1-15.9-8.19c-2.82-2-6.26-3.3-8.91-5.52-5.66-4.75-12.52-7.36-18.63-11.26a108.13,108.13,0,0,0-12-6.07,61.13,61.13,0,0,1-13.11-8.11c-2-1.72-4.4-3.09-6.38-4.88A41.61,41.61,0,0,1,29,212.79c-.45-.62-.82-1.49-1.44-1.77-2.84-1.27-3-4.44-4.73-6.46a1.39,1.39,0,0,1,.11-1.32c1.41-1.53.63-3.11.24-4.7-.48-1.95-1-3.88-1.39-5.85q-1.29-7.11-2.41-14.25c-.61-3.92-.64-8-1.74-11.75-1.41-4.86-1.06-10-3-14.8-.84-2.06-.6-4.56-.91-6.85-.51-3.79-1-7.59-1.63-11.37-.42-2.47-1.18-4.89-1.54-7.38-.42-2.94-.46-5.94-.86-8.89-.72-5.16-1.6-10.31-2.38-15.46-.56-3.66-1-7.33-1.63-11C4.59,84.8,4.52,78.56,3.88,72.38c-.59-5.69-.66-11.47-2.11-17.12-.86-3.35-.64-7-.91-10.48-.24-3-.18-5.91-.63-8.92C-.67,29.79,1,24.08,6.5,20.54a31,31,0,0,1,11.36-4.47c4-.69,7.92-1.61,11.87-2.29,4.24-.73,8.39-1.84,12.61-2.63,3.56-.66,7-1.71,10.56-2.6A16.83,16.83,0,0,1,55.07,8c5.67-.56,11.45-.56,17-1.77s11.14-1.5,16.67-2.41A82.16,82.16,0,0,1,98,3.17M12.1,74.25a31.7,31.7,0,0,1,.77,4.49c.13,3.92-.13,7.83.8,11.72a102.47,102.47,0,0,1,1.82,11c.45,3.51,1.36,7,1.47,10.59.08,2.84,0,5.83.91,8.45.72,2.1.35,4.1.75,6.1,1.05,5.19,2.18,10.37,3.09,15.58.7,4,1,8.14,1.66,12.18,1,5.86,2.1,11.7,3.2,17.54a92.74,92.74,0,0,1,1.71,10.57c.3,4.12,1.48,8.17,2.3,12.26.52,2.59,1,5.19,1.64,7.75.33,1.3,1.41,2.49,1.49,3.77a11.15,11.15,0,0,0,3.64,7.35,64.11,64.11,0,0,0,18.81,12.77,181.26,181.26,0,0,1,18.45,9.74c1.89,1.16,4.07,1.87,5.94,3.07,5.52,3.51,10.84,7.36,16.47,10.69a133.84,133.84,0,0,0,14.59,7.38c4.88,2.13,10.29,2.83,15,5.39,2.64-.83,4.54,1.42,7,1.64,5.17.47,9.47-1.68,13.37-4.54,1.86-1.37,3.83-2.4,5.78-3.56,2.7-1.6,5.36-3.31,7.89-5.17,4.78-3.54,9.45-7.19,13.9-11.2,4.9-4.41,10.41-8.15,15.09-12.88,3.87-3.91,7.32-8.15,10.86-12.34,4.29-5.07,9.33-9.51,14-14.23,3.88-3.88,7.84-7.68,11.6-11.67a26.29,26.29,0,0,0,4.74-6.46c.79-1.7,1.62-3.47.76-6-1-2.86-.95-6.23-1.65-9.37-1.08-4.81-1.67-9.73-2.67-14.56-.86-4.17-.62-8.42-1.47-12.62-1.21-6-1.71-12.16-2.51-18.25-.27-2,0-4.31-.9-6-2.36-4.71-2.44-9.9-2.9-14.8-.65-6.93-1.53-13.79-2.55-20.67-.7-4.78-.61-9.67-.88-14.51L215.3,51.2a11.11,11.11,0,0,0-.11-1.16c-.49-3-1.05-6-1.47-9-.36-2.55-.11-5.28-.92-7.66-1.7-5-2.78-10.25-5.1-15.16a14.27,14.27,0,0,0-7.78-7.39c-1.59-.67-3.72,0-5.43-.48-4.27-1.27-8.69-.73-13-1.46-3.84-.65-7.77,0-11.73-.73-4.86-.91-9.92-.88-14.9-.92-11.27-.07-22.55-.32-33.79.76a11.91,11.91,0,0,0-1.2,0,77.41,77.41,0,0,1-16.2,1.6,41.09,41.09,0,0,1-5.21-.06,14.88,14.88,0,0,0-4.53.24,66.45,66.45,0,0,1-13,1.42,4.75,4.75,0,0,0-1.6,0c-4.74,1.75-9.8,1.47-14.67,2.35-2.8.5-5.75.22-8.48.91-6.93,1.75-13.6,4.29-20.89,4.92C29.45,19.9,23.8,22,18,23.18a8.24,8.24,0,0,0-4.64,2.4c-.55.57-1.05,1.42-1.72,1.63C9.11,28,9,30,8.91,32.08c-.08,1.74.28,3.55-.11,5.2s.35,3,.09,4.57c-1,6.21,1.78,12,1.72,18.21C10.57,64.52,11.57,69,12.1,74.25Z"/><path d="M208.88,175.05c0,2.54.13,4.69,0,6.82-.1,1.2-.43,3.15-1.13,3.4-2.61.92-2.79,3.47-4.21,5.12a93.56,93.56,0,0,1-6.73,6.78c-1.31,1.24-2.88,2.19-4.18,3.44a124.67,124.67,0,0,1-24,17.62,48.32,48.32,0,0,0-8.34,6,188.68,188.68,0,0,0-13.53,13.6,12,12,0,0,1-6.82,3.82c-4.93,1-10-.31-15,0a4.9,4.9,0,0,1-2.43-.84c-3.83-2.08-7.6-4.27-11.44-6.31-1.3-.7-2.78-1-4.13-1.65s-3-1-3.94-2c-2.59-2.95-6.4-3.47-9.59-5.08-5.61-2.84-11.59-5-17.42-7.34-3.55-1.45-7.21-2.65-10.66-4.3-6.71-3.22-13-7.06-16.47-14.08-.8-1.64-.93-3.62-1.39-5.44-.19-.72-.2-1.69-.68-2.09-2.37-2-2.32-4.63-2.66-7.4-.37-3-.14-6.12-1.44-9a5.27,5.27,0,0,1,0-2,51.1,51.1,0,0,0-1.53-11.79c-.63-2.75-.51-5.66-.9-8.48-.54-3.9-1.24-7.77-1.9-11.65-.4-2.37-.84-4.73-1.29-7.09-.5-2.6-1.11-5.18-1.51-7.8s-.52-5.38-.92-8c-.57-3.74-.87-7.51-2.15-11.14-.71-2-.73-4.26-1-6.4s-.67-4-.78-6.09c-.34-6.31-.94-12.64-.67-18.93a43.31,43.31,0,0,1,1.32-9.81,32.85,32.85,0,0,0,.86-9.66c-.11-4.7,1.25-9.08,2.56-13.43S40,37.86,44,37a135.23,135.23,0,0,1,15-2.6c5-.53,10-1,15-1.63,5.14-.63,10.26-1.12,15.39-1.65,3.66-.38,7.44.18,10.89-.75,4.33-1.17,8.83.3,13-1.41a7.86,7.86,0,0,1,2.79-.05c14.45,0,28.9.13,43.34-.06a91,91,0,0,1,17.78,1.77c2.85.54,5.54,2.1,8.18,3.43a35.67,35.67,0,0,1,5,3.38C194,40,194.69,44.23,195.91,48a55.64,55.64,0,0,1,2.63,13.4c.35,4.92,1.51,9.78,2.3,14.67a7.09,7.09,0,0,1,0,.8q.39,9.06.81,18.13c.24,5.1.07,10.29,1,15.29.61,3.42.08,6.83.75,10.11.63,3.12.33,6.32,1.4,9.42.78,2.26.73,4.82.89,7.26.33,5,.67,9.94.79,14.92a77.42,77.42,0,0,0,1.57,13.4,84.87,84.87,0,0,1,.87,9.69M53.06,188.3c1.07,3.7,2.23,7.39,3.19,11.12a8.35,8.35,0,0,0,4,5.34,69.27,69.27,0,0,0,11.65,5.83c2.29.84,4.59,1.81,6.89,2.72,3.91,1.54,7.57,3.86,11.57,5,6.18,1.75,11.38,5.46,17.24,7.83,5,2,9.74,4.94,14.53,7.56,2.11,1.15,4.19.85,6.37.46a8.62,8.62,0,0,1,3.24,0c1.8.39,3.6,1,5.15-.39,4-3.64,8.25-7.08,11.8-11.13,3.93-4.47,8.68-7.62,13.66-10.61a74.61,74.61,0,0,0,6.73-4.06c4.31-3.28,8.61-6.6,12.62-10.23,5.06-4.59,11-8.16,15.09-13.94,2.61-3.68,4.21-7.27,4-11.62a102.07,102.07,0,0,0-1.45-11.4c-.76-4.63-.66-9.39-.92-14.1q-.42-7.66-.8-15.33c0-.26.08-.57,0-.79-2.09-5-1.43-10.34-2.28-15.49-.8-4.89.12-9.92-.79-14.93-.81-4.46-.45-9.13-.73-13.71-.52-8.15-1.3-16.21-2.44-24.3a91.54,91.54,0,0,0-4-17.64,6.88,6.88,0,0,0-3.2-3.86c-3.71-2.49-8-3.15-12.15-3.57-5.21-.53-10.51-.71-15.72-.75-16-.1-32-1-47.93,1.31-6.78,1-13.77.62-20.66,1-3.24.15-6.6,0-9.67.9-3.52,1-7.11.93-10.63,1.32-4.86.55-9.75.9-14.56,1.81-1.69.32-3.28,1.27-5,1.52-3.76.56-5.78,2.73-6.86,6.23A61.4,61.4,0,0,0,38.6,66.18a38.66,38.66,0,0,1-.27,4.31c-.37,2.5-1.18,5-1.27,7.47a96.89,96.89,0,0,0,1.51,21c.5,2.79.4,5.69.87,8.49,1.24,7.22,2.74,14.4,4,21.63.72,4.3.84,8.7,1.7,13,1.47,7.27,3.06,14.5,3.16,22a3.26,3.26,0,0,0,.17,1.13c1.89,4.61,1.49,9.57,2.09,14.35C50.89,182.47,51,185.34,53.06,188.3Z"/><path d="M59.29,31.48a1.67,1.67,0,0,1-1.08.51s-.09-.33-.14-.5A2.46,2.46,0,0,1,59.29,31.48Z"/><path d="M211.49,195.33a2.46,2.46,0,0,1,1.22,0c-.05.17-.13.5-.14.5A1.7,1.7,0,0,1,211.49,195.33Z"/><path d="M81.17,122.84c-4.56-1.82-9.64-1-12.66,1.77a23.63,23.63,0,0,0-6.38,9c-1.25,3.29-2.35,6.64-1.26,10.62.82,3,1,6.17,2.62,9,1.89,3.22,3.12,3.46,5.46.66a19,19,0,0,0,2.55-4.15c.69-1.45,1.56-3.06,1.43-4.52-.05-.6-2.48-1-3.84-1.48-2.32-.8-3.13-2-3.18-4.83,0-3.18.44-4.46,3.11-5,2.19-.43,4.81,0,6.25,2,2.09,2.92,4.29,5.64,5.34,9.45,1.26,4.56-.81,7.55-2.75,10.79-1,1.76-3,3-4.37,4.58a1.64,1.64,0,0,0,.23,1.56c2.92,1.57,2,4,1.44,6.28A11.13,11.13,0,0,0,78,179.49a6,6,0,0,0,4.4,2,12.57,12.57,0,0,1,3.27.78c1.47.48,1.83,1.62,1.67,3.07a39.27,39.27,0,0,0-.5,5.8c.13,3.43,2.11,4.73,5.47,3.63a5.81,5.81,0,0,1,4.39.08c1.61.65,2.23,1.42,2.2,3.13,0,1.09.6,2.17.72,3.28.22,2,1.12,1.66,2.56,1.15a10,10,0,0,1,3.59-.07c2.55.11,3.8,1.21,4.33,3.67a9.49,9.49,0,0,0,.83,2.86,44.33,44.33,0,0,0,2.95,3.9c1-1.06,2.09-2.07,3-3.2,2-2.43,3.8-3,6.87-2a18.66,18.66,0,0,1,3.51,1.22c4.64,2.6,5.09,2.5,7.22-2.34.49-1.13.92-2.3,1.3-3.48,1.42-4.39,2.87-5.17,7.54-3.94,2.26.58,4.31-.53,5.31-3a6.31,6.31,0,0,0,.45-1.82c.29-3.41,2.93-4.37,5.54-4.66,2.22-.24,3.36-.52,4-3.05.55-2.24,2-4.25,2.15-6.74.11-1.53,1.37-2.55,2.77-3.16a9,9,0,0,0,4.47-4.51c1.65-3.15.06-5.65-1.17-8.15s-1.15-3.27,1.53-4.21c2.86-1,3.68-2.18,3.6-4.83,0-1.6-.64-2.47-2.33-2.41-.94,0-1.87,0-2.81,0a9.8,9.8,0,0,1-10.12-10.26c0-2.57-.33-5.15.73-7.72,1.19-2.87,4-5.6,6.86-5.23a47.59,47.59,0,0,1,7.9,2.19,2.89,2.89,0,0,1,2.09,3.42c-.2,1-.93,2.52-1.74,2.76a5.34,5.34,0,0,1-3.89-.51c-1.7-1-2.53-.79-3.14,1a4.07,4.07,0,0,1-.35.65c-1,1.81-2.07,3.65-.77,5.71.76,1.2,4.11,1.15,6.54-.05a23.83,23.83,0,0,0,4.86-2.75c1.12-.93,2.45-2.45,2.44-3.7,0-3.77.63-7.53-.56-11.35-1.35-4.31-4.52-6.23-8.17-7.87a16.27,16.27,0,0,0-2.87-.81c-2.63-.62-6.71,1.45-8.24,4.72-.74,1.56-3.1,3.17-1,5.45.14.16-.81,1.47-1.4,2.11-.92,1-2.2,1.79-1,3.4.19.25.05.79,0,1.19-.08,1.6-1.6,3.76-2.79,4s-4.09-1.81-4.42-3.22c-1-4.28-1.33-8.4.84-12.64a33.88,33.88,0,0,1,5.45-7.79c4.19-4.51,8.87-5.22,14.58-3.33a29.24,29.24,0,0,1,16.4,13.33,8.42,8.42,0,0,1,.87,3.24c.62,5.33,2.07,10.78-1.24,15.75a40.48,40.48,0,0,1-4.33,5c-1.07,1.13-1.77,1.88-.63,3.67,2.07,3.22,1.33,6.91-.81,9.62a10.1,10.1,0,0,0-2.21,7.56,11.93,11.93,0,0,1-2.43,8.23c-.46.63-.87,1.53-1.5,1.75-3.24,1.14-3.68,4.24-4.92,6.77a69.07,69.07,0,0,1-3.61,7.32,8.88,8.88,0,0,1-3.87,3.1c-3.75,1.58-4.11,1.28-5.66,4.27-2,3.76-5.22,4.54-8.84,4.79-3,.21-3,.1-3.72,3-.91,3.85-5.09,8.18-8.54,8.14a19.55,19.55,0,0,1-7.71-1.62c-2.23-1-3.45-.64-5.1.91-4.84,4.55-13,1.88-15.85-2.24a32.49,32.49,0,0,0-2.29-3.06,1.82,1.82,0,0,0-2.56-.7c-1.26.51-3.52-.26-4.76-1.22-1.78-1.36-3.67-2.83-4.15-5.46-.24-1.35-1.14-2.4-3.17-2.7-6-.86-9.68-5.2-10.13-11-.19-2.52-1.12-4.5-3.57-5.7a13.3,13.3,0,0,1-7.61-10.79c-.36-2.9-.68-6.06.14-8.76.62-2,.38-2.41-1.29-3a21.47,21.47,0,0,1-3.35-1.61c-5.1-2.8-7-7.68-8.4-12.91a26.89,26.89,0,0,1,0-15,34.88,34.88,0,0,1,3.87-8.41c1.33-2.08,3.55-3.58,5.21-5.48,2.36-2.7,5.72-2.58,8.75-3,1.39-.21,2.9-1,4.57-.23a4,4,0,0,0,3.48,0c.63-.44.26-2.16.59-3.23a13.16,13.16,0,0,1,5.6-7.07c3.71-2.54,7.86-2.27,11.8-1.24a2.23,2.23,0,0,0,2.55-.66c3.17-2.59,6.79-4.24,10.89-3.64,2.79.41,5.47,1.6,8.2,2.44.55.17,1.28.67,1.63.48,3.27-1.83,6.37-.69,9.62.12a10.21,10.21,0,0,0,5.95,0,15.28,15.28,0,0,1,8.53-.51c3.76.64,7.71,1.76,9.36,6.09a5.46,5.46,0,0,1-1.17,6.3c-.87.9-4.72,1.6-6,1.07-1.57-.67-2.28-2.63-1.69-4.68.72-2.48.69-2.27-1.81-2.58s-3.82.69-4.85,2.78c-.95,1.91-2.06,2.21-3.92,1.29-1.4-.7-2.83-1.07-3.65-2.91-.9-2-4.3-1.49-5.93.7-2,2.73-3.47,2.93-6,.79-.61-.51-1.42-1-1.66-1.71-1.25-3.57-4.1-3.51-7-3.28a3.3,3.3,0,0,0-3.13,3.25c0,.67.07,1.35,0,2a2.71,2.71,0,0,1-4.17,2.16c-1.65-.9-3.16-2.06-4.74-3.1-2.64-1.73-5.08-1.3-7.7.54s-2.81,5.45-5,7.63a3.73,3.73,0,0,0,1,1.14c6.6,3.81,9.46,11.23,7.89,19.26a16.11,16.11,0,0,1-2.39,5.86,3.77,3.77,0,0,1-4.85,1.05,3.52,3.52,0,0,1-1.47-4.39c1.55-5,1.68-10.15-1.07-14.88C84.32,125.08,82.79,124.05,81.17,122.84Z"/><path d="M113.3,69.83a13.83,13.83,0,0,1-.89,3.64,2.71,2.71,0,0,1-4,.61c-1.37-1.21-2.77-2.34-2.35-4.67a7.63,7.63,0,0,0-2.11-7.17c-.44-.44-2.12-1.88-.35-3.31.38-.32-.18-1.91-.43-2.88-.58-2.29-1.33-4.55-1.81-6.86a2.73,2.73,0,0,1,.8-2c.3-.3,1.16,0,1.75,0a14.41,14.41,0,0,0,2.46-.45c4.87-1.46,9.55-1.81,13.63,2.06a5.84,5.84,0,0,0,1.93,1.13c2.69,1,3.86,3.24,4.22,5.81a10.79,10.79,0,0,1-2.16,7.9c-1.58,2.18-1.61,2.33.35,4a27.56,27.56,0,0,1,4.21,3.83c1.44,1.86.09,4-2.3,4-1.82,0-3-1.13-4.32-2.21a66.74,66.74,0,0,0-6.44-4.79c-.71-.46-2.16-.93-2.14,1.38m-2-16.06c-1.91,2.75-1.75,3.62.9,4.91,3.38,1.64,4.86.91,5.91-3,.24-.91,1.26-2.47-.39-2.62C115.89,52.91,113.78,52.18,111.29,53.77Z"/><path d="M146.83,73.65C139.51,71.89,136.75,66,134.23,60c-1.15-2.73-1.85-5.65-2.73-8.49a9.81,9.81,0,0,1-.51-2.19c-.11-1.31-.29-2.81,1.18-3.48,1.3-.58,2.06.61,3,1.29,2.68,1.87,3.66,4.32,3.92,7.58.31,3.88,2.72,7.13,4.56,10.49.17.3,1.27.27,1.87.11,3.43-.93,3.85-4.16,4.58-6.81.47-1.73-.38-3.79-.47-5.72-.14-2.91-.27-5.83-.14-8.73.05-1.07,1.14-1.68,2.36-1.49,3,.48,5.86,3.84,4.67,6.41-1.52,3.28.47,5.91.6,8.85a22.07,22.07,0,0,1-1.45,9.11c-.87,2.15-3.24,3.78-5.17,5.36C149.64,73,148.21,73.07,146.83,73.65Z"/><path d="M121.33,191.11c.59-.19.83-.35,1-.57.25-.43.72-1,.6-1.32-.93-2.57.92-5.4-.77-7.84a13,13,0,0,0-1.78-2.07,3.27,3.27,0,0,0-1.56-1c-3.48-.52-5-3.55-7.35-5.54-1.65-1.41,1-2.47.35-3.82.65.16,1.31.28,1.94.49,2.46.84,4.91,1.72,7.37,2.56s3.57.33,5.1-1.6c1-1.25,2.14-2.85,3.51-3.25,2.39-.68,4.69.72,6.75,1.88.63.36.7,1.79.93,2.75.37,1.52-.9,1.24-1.67,1.79a32.18,32.18,0,0,0-6,5.75,3.55,3.55,0,0,0-.16,3.35c1.15,1.68.65,3.32.48,4.93-.13,1.24-.32,2.1,1.07,2.76s2.22,1.92,3.48,2.22c2.26.55,1.38,2.25,1,3-.49,1-1.69,2.66-3.06,1.87-2.37-1.38-4-.36-5.92.8-2.08,1.25-4,.51-6.07-1.94C119.31,194.86,119.44,193.27,121.33,191.11Z"/><path d="M79.57,53.77c4.05,1.59,4.18,4.65,4.09,8.07a60.54,60.54,0,0,0,.79,8.89c0,.21,1.14.6,1.35.42A10.91,10.91,0,0,0,90,64.09c.62-4.86,1.2-9.72,1.57-14.6.14-1.86,1.28-1.58,2.1-1.22,1.48.63,3.29,1.34,4,2.58a5.64,5.64,0,0,1,.21,4.59c-.88,2-.38,3.86-.71,5.75-.77,4.44-.66,9-3.06,13.2-1.58,2.76-4.06,3.7-6.44,5-.65.35-2-.25-2.85-.68-5-2.41-6.42-7.27-7.6-12-.8-3.23-.54-6.72-.94-10.08-.22-1.81,1-2.58,2-3.57A5.33,5.33,0,0,0,79.57,53.77Z"/><path d="M65.71,83.28c-2.89.65-4.49-1-5.35-3.07-1-2.4-2.31-4.64-2.59-7.39-.24-2.44-.81-4.95-3.14-6.72-4.35-3.3-6.49-8-7.65-13.25A2.5,2.5,0,0,1,47.53,51c.21-.25,1.16-.17,1.58.09,2.29,1.4,4.69,2.55,4.86,6,.12,2.47,3.34,3.4,5.08,1.51a87,87,0,0,0,6.82-8.39c2.4-3.33,2.83-3.57,5.84-1.39A5.68,5.68,0,0,1,73.87,51a4.39,4.39,0,0,1-1.37,4.56,55.31,55.31,0,0,0-7.89,9.6c-.49.7-1.23,1.74-1,2.32,1,2.87,0,6.18,1.94,8.83C67.13,78.45,67,80.75,65.71,83.28Z"/><path d="M177.56,44.93a8.4,8.4,0,0,1,2.09,1.71c1.82,2,1.1,4.29-1.69,4.63a4.47,4.47,0,0,0-3,1.49c-1,1.09-.56,1.92.11,3.07.46.8.22,2.11.06,3.15-.45,2.88.87,4.63,3.23,6.07,3.35,2,3.43,3.31.74,6.06a6.74,6.74,0,0,0-.84.85c-1.67,2.55-3.63,2.71-6.43,1.54-2.2-.92-4.55-1.23-6.31-3.18-1.43-1.59-.49-3.29-.81-4.9a21.84,21.84,0,0,1,2.64-.39c.89,0,2-.33,1.27-1.2-1.29-1.63-.58-3.32-.65-4.95-.12-2.94-.88-5.26-3.75-6.77-3.37-1.77-3.24-4.91-.33-7.24,2.27-1.81,4.18-2.51,6.87-.87,1,.59,2.61,0,3.93.16C175.52,44.25,176.33,44.66,177.56,44.93Z"/><path d="M137.4,152.56c2.48-2.13,5.22-1.85,6.34.6a12.35,12.35,0,0,1,.81,5.18c0,1.3-1.92,2-3,1.11-1.41-1.2-3.54-1.94-3.41-4.45C138.19,154.34,137.66,153.64,137.4,152.56Z"/><path d="M108.48,162.2c-2.29-.28-3.52-1.58-4.84-2.8s-.87-2.76-.61-4c.11-.55,2-1.39,2.51-1.09a23.29,23.29,0,0,1,5.29,4.43C112.54,160.77,112,161.59,108.48,162.2Z"/><path d="M134.79,100.15a2.67,2.67,0,0,1-.27-1.34l1.25.35Z"/><path d="M109.49,42.32c0-.23.28-.25.52-.28A.48.48,0,0,1,109.49,42.32Z"/><path d="M184.18,120.23c0-.23.28-.25.52-.28A.47.47,0,0,1,184.18,120.23Z"/></g></g></svg>