<svg xmlns="http://www.w3.org/2000/svg" viewBox="0 0 445.66 438.08"><title>handle</title><g id="レイヤー_2" data-name="レイヤー 2"><g id="レイヤー_1-2" data-name="レイヤー 1"><path d="M436.92,295.45c-5.21,12.05-13,21.71-20.67,31.53-4.51,5.76-10.24,10.69-13.15,17.66A5.52,5.52,0,0,1,402,346c-5.75,6.18-11.21,12.66-17.33,18.44-9,8.55-18.53,16.59-27.82,24.87a5.72,5.72,0,0,0-1.26,1.6c-1.36,2.75-2.52,5.69-6.59,4.71-.37-.09-.9.73-1.41,1-12.63,7.59-26.15,13.31-39.71,18.93-7.12,3-14.27,5.85-21.4,8.76-.18.08-.47-.07-.62,0-7.43,4.57-16,6-24.21,8-7.44,1.73-14.78,3.92-22.51,4.84a158.25,158.25,0,0,1-18.29.87c-4,0-8-1-12-1.1a57.34,57.34,0,0,0-11.42.89c-3.87.67-8.17-1-12.26-1.73-11.94-2.16-22.69-7.52-33.7-12.3s-22.29-8.64-33.2-13.47a66.24,66.24,0,0,1-13.86-8.79c-11.44-9-19.35-21.18-28-32.64-6.68-8.78-13.77-17.23-20.58-25.91C47.56,332.6,39,322.34,32.68,310.66c-6.54-12-13.26-24.06-16.73-37.48-1.66-6.42-3.51-12.83-4.58-19.36-1.63-9.88-3.16-19.77-6.56-29.22a58.64,58.64,0,0,1-2.46-11.53c-.65-4.46-.48-9-2.16-13.45-.65-1.71.52-4.21,1.1-6.29,3-10.8,5.09-22,11.31-31.59,4.31-6.64,5.76-14.32,8.56-21.49a164.77,164.77,0,0,1,13.39-27.61c6.74-10.81,13.5-21.63,20.86-32,4.44-6.25,9-12.52,14.88-17.69,7.11-6.26,13.52-13.34,20.88-19.27,5.42-4.37,11.76-7.67,17.89-11.08,9.45-5.25,19.74-9,29.15-14.11A155,155,0,0,1,168.72,6c5.07-1.51,10.28-2.48,15.42-3.67C195.87-.43,207.64.14,219.44,0c7.07-.08,14,2.09,20.87,2.2,7.18.12,13.86,2.25,20.84,3,10.87,1.11,21.66,3.19,31.42,8.62,3.89,2.16,8.41,3,12,5.87a3.14,3.14,0,0,0,2.32.34c4.48-.9,7.46,1.34,10,4.57,3.58,4.54,9.19,6.07,13.76,9.14,11.53,7.73,23.47,14.8,33.71,24.4,7.5,7,16,13.06,23.49,20.1,4.67,4.38,8.41,9.77,12.47,14.79a140.93,140.93,0,0,1,18.15,28.15,169,169,0,0,1,12.22,33.74,13.39,13.39,0,0,0,1.22,2.61l2.5,11.69a58.34,58.34,0,0,0,3.66,16c1.36,3.4,1.87,7.17,2.58,10.81.94,4.85,1.71,9.73,2.51,14.61a8.38,8.38,0,0,1,0,2.5c-.78,5.62.06,11,1,16.63,1,5.87-.13,12.09.37,18.09a77.72,77.72,0,0,1,0,11.72c-.31,4.78,1.72,9.85.84,14.44-1.41,7.35-2.26,15.31-8.52,21.45m-92-86.38a46.86,46.86,0,0,0-.27,7.09c.05.61,1.86,1.06,2.86,1.58a16.57,16.57,0,0,0-.26-2.55,23.59,23.59,0,0,1-1.08-6.12l1.56-5.95a3.4,3.4,0,0,0-.87.27c-2.23,1.47-1,3.76-1.94,5.68m-75.12-139c-2.54-.42-5.07-.91-7.62-1.24-7-.87-14-1.27-20.84-2.63-7.14-1.42-14.27-2.72-21.51-2.26-3.48.22-7.61-.84-10.33,2.63-1,1.25-1.46,0-2.25-.1-3.57-.6-7.24-1.17-10.81-.13-6.71,2-14.33,1.84-19.09,8.42-.67.92-3.11,1.85-3.57,1.44-3-2.64-5.08,0-7.49,1-16.06,6.59-29.8,16.86-42.79,28A140.65,140.65,0,0,0,96.84,135.4c-2.18,3.37-1.61,4.65,2.67,4.72,2.16,0,3.25.65,3.86,2.64a23.15,23.15,0,0,0,1.82,4.25c3.49,6.38,6,13.33,11.79,18.33a49,49,0,0,0,8.73,6.2c4,2.13,7.26,5.93,11.4,7.21a88.51,88.51,0,0,1,21.38,10.38c7.21,4.58,15.12,7.79,22.69,11.67,2.79,1.43,4-.27,3.93-1.55-.27-3.89,2.3-6.26,4-9.08,7.59-12.81,18.75-19.19,33.79-18.7,5.42.18,10.62,1.34,15.91,2.2A76.53,76.53,0,0,1,265.88,184a60.71,60.71,0,0,1,9.11,6.65,32.9,32.9,0,0,1,4.9,6.07c1.56,2.24,3.4,2.12,5.25.76,8.17-6,16.38-11.94,24.38-18.16,5.59-4.35,10.57-9.51,16.33-13.58,8-5.63,15.6-11.51,22.34-18.62a61.39,61.39,0,0,0,9.3-13.07c1.47-2.73,1.43-4.74-.7-7-3.2-3.41-6.6-6.74-9.23-10.57-5-7.32-12.12-12.22-18.85-17.71s-14.18-9.13-21.28-13.68c-8.93-5.72-18.16-10.43-28.65-12.48-2.64-.52-5.16-1.62-9-2.46M80.13,227.22c-.44.44-.8,1.09-1.34,1.3-5.21,2-8.45,5.09-6.18,11.23.07.18,0,.41,0,.62.42,4.62.67,9.26,1.33,13.85.27,1.84,1,4.12,2.29,5.21,3.31,2.74,2.94,6,2.3,9.46a4,4,0,0,0,0,1.76c2.36,8.17,4.83,16.32,8.86,23.83a174.22,174.22,0,0,0,9.07,15c5.59,8.28,11,16.66,18.24,23.75,6.69,6.58,14,12.45,21,18.66,10.31,9.14,22.5,15,34.38,21.36,5,2.69,10.46,5.26,16.82,2.5,2.51-1.09,6.88-1,8.19,1.9,1.44,3.21,3.43,2.89,5.8,2.92,2.09,0,4.18-.07,6.25,0,2.25.11,3.31-.71,4.62-2.82,3-4.86,3-10.45,4.76-15.56,1.22-3.49,2.57-7.35,2.17-10.86-.44-3.94-1.73-7.66.39-11.44-2.56-4-.79-8.4-1.18-12.6-.55-5.86-.46-11.75-1-17.64-.83-9.66-.87-19.33-2.59-29-.8-4.48-2.56-7.84-5.84-10.06a91.84,91.84,0,0,1-19.07-17c-3.29-3.93-7.53-7.45-8.14-13.53-.32-3.2-2.25-7.41-7.55-6-.75.2-1.76-.65-2.66-1-2.34-.89-4.61-2.2-7-2.6a203.3,203.3,0,0,1-24.92-6.29c-2.81-.84-6.24-.41-8.57-1.87-3.45-2.15-6.91-1.9-10.49-1.92-8.13,0-16.27.24-24.38-.1-6.15-.25-10.92,1.95-15.55,7m231,134.58c5.76-3.82,12.37-6.38,17-11.9,2.11-2.52,4.71-4.62,6.94-7,2.89-3.14,5.58-6.45,8.45-9.6.63-.69,1.71-.93,2.48-1.51a54.7,54.7,0,0,0,6.58-5.2c3.84-3.94,7.2-8.37,11.14-12.21,8.59-8.36,13.49-18.74,16.85-29.93,2.7-9,5.86-17.81,6.59-27.38.27-3.53.72-7.16,1-10.75s1.06-7.15,1.17-10.74c.19-6.18-1.4-7.71-7.85-7.64-4.22.05-8.58-.92-12.61,1.21-5.07-2.7-10.53-1.17-15.74-1.07-4.16.09-8.61.39-12.27,3.49-2,1.71-4.82.71-6.64-.77-3-2.47-6.42-2.91-10.08-2.91a58.24,58.24,0,0,0-21,3.66c-3.77,1.42-7.78,3.05-11.58,3.53-4.06.51-4.94,2.75-6.06,5.42-4.3,10.23-9.33,19.67-19.9,25.09-3.81,1.95-6.81,5.48-10.17,8.29.83,2.78,1.63,5.57,2.53,8.33.18.53,1,.85,1.17,1.38,4.16,10.37,8.49,20.68,12.32,31.16A148.54,148.54,0,0,0,281,335.78c3.64,6.57,6.76,13.48,10.72,19.91,1.13,1.84,2.48,3.56,3.74,5.33,1.63,2.3,3.58,3.6,6.68,3.37,2.89-.2,5.62-.28,9-2.59M259.78,252.89c2.62-2.63,5.55-5,7.81-7.93,5.52-7.11,9.45-15,9.05-24.32a31.08,31.08,0,0,0-4.91-14.82c-6.8-11.32-9.77-15.25-21.44-18.52-8.7-2.45-17.4-5-27-3.58-8.63,1.24-15.49,4.37-20.38,11.12-3.1,4.26-6.69,8.78-5.12,14.95.81,3.17-.74,5.53-3.73,6.76a3.58,3.58,0,0,0-2.55,3.64c0,1.51-1.1,3-1.08,4.49.08,4.47-.53,9.28.91,13.32,4.73,13.31,15.24,21.3,27.28,27.69,1.57.83,2.41,1.3,3.51-.17,1.28-1.71,2.2-1.17,4-.26,3.79,1.92,7.84,1.87,12.16.54,8-2.46,14.5-7.07,21.53-12.91M292.33,25a15,15,0,0,0,2.61,1.2c.48.13,1.1-.28,1.65-.45-.36-.45-.64-1.1-1.1-1.29-3.74-1.54-7.5-3-11.28-4.43-.27-.1-.71.24-1.06.38.15.3.33.58.46.89,1.6,3.9,5.6,1.51,8.72,3.7M105.17,385a10.08,10.08,0,0,0,.87.86c.86.66,1.74,1.29,2.6,1.92a20,20,0,0,0-1.19-2.95,6.73,6.73,0,0,0-1.71-1.74c-1.83-1.45-3.71-2.85-5.58-4.27,1.46,1.85,2.92,3.7,5,6.18M113.31,98.9a3,3,0,0,0,.6-1c.34-1.65,2.55-3.4-.21-4.91a26,26,0,0,0-1.6,3.38c-.24.75,0,1.65,1.21,2.48M364.94,331.75c-.21.54-.69,1.14-.58,1.61.41,1.88,1,3.73,1.51,5.59a3.76,3.76,0,0,0,.85-.25c-.2-2.14,1.07-4.56-1.78-6.95M277.3,17.53l-2.87.38c.54.71,1,1.65,1.68,2.05a3.92,3.92,0,0,0,2.38,0,7.85,7.85,0,0,0,1.78-.75,6,6,0,0,0-3-1.72M413.76,149c3.44.08,1.19-2.6,1.83-3.88.06-.12-.55-.56-.85-.86-.54,1-1.11,1.93-1.58,2.93-.16.33,0,.79.6,1.81M386.22,333c-.21-.54-.28-1.22-.66-1.56a7.13,7.13,0,0,0-1.88-.91,11.4,11.4,0,0,0,.14,1.31c.15.75.32,1.51.52,2.25.37,1.33.38,1.32,1.88-1.09m-195.3,86.38c.21-.53.69-1.13.57-1.57a10,10,0,0,0-1.19-2.19,10,10,0,0,0-1.2,2.19c-.11.44.36,1,1.82,1.57M420.64,162.12c-3.5-2.28-2,2.38-3.62,2.64.55.16,1.45.62,1.6.44.59-.71.95-1.62,2-3.08M122.7,352.41c-.84,0-1.67,0-2.5.07a5.15,5.15,0,0,0,0,1.11,2.32,2.32,0,0,0,2.5-1.18m243.49-241c.44.4,1.24,1.16,1.26,1.14,1.7-1.72-.28-2.36-1-3.39a2.52,2.52,0,0,0-.24,2.25m10,13.77c0,.84,0,1.67.07,2.5a5.15,5.15,0,0,0,1.11,0,2.31,2.31,0,0,0-1.18-2.5m31.3,5,1.88-1.43c-.36-.36-.71-.72-1.07-1.07a3,3,0,0,0-.81,2.5M356.17,159a4.56,4.56,0,0,0-1.17,0,17.27,17.27,0,0,0-1.85.72,4.63,4.63,0,0,0,1.55.48,1.39,1.39,0,0,0,1.47-1.22m44.44-45.69a19.22,19.22,0,0,0-1.41-1.85c-.07-.07-.6.28-.93.44a3.06,3.06,0,0,0,2.34,1.41M26.3,256a2.12,2.12,0,0,0,.44.41c.1.06.4,0,.4,0a27.8,27.8,0,0,0,.37-2.87c0-.13-.52-.28-.8-.42A14.76,14.76,0,0,0,26.3,256M308.6,65.1a2.63,2.63,0,0,0-.4.42.86.86,0,0,0,0,.4l2.31-.33a1.76,1.76,0,0,0-1.88-.49M117.69,40.69l2.47-1.28a2.49,2.49,0,0,0-2.47,1.28m194-7.51a2.57,2.57,0,0,0-.41-.4.92.92,0,0,0-.41,0l.33,2.31a1.76,1.76,0,0,0,.49-1.88m-77-20.66a4.57,4.57,0,0,0,1.17,0,17.27,17.27,0,0,0,1.85-.72,4.64,4.64,0,0,0-1.54-.48c-.72,0-1.41.38-1.48,1.21m135.2,339.26,1.59-.34-1.87-1.87a3,3,0,0,0,.28,2.21m-85.13,16.28,1.6-.34-1.88-1.88a3.05,3.05,0,0,0,.28,2.22m-57,23.16c.67.17,1.33.35,2,.48,0,0,.14-.51.21-.78a3,3,0,0,0-2.21.3M129.58,359.3l.63,1.25c.21-.42.41-.84-.63-1.25m57-346.15c.66.17,1.33.35,2,.48a7.76,7.76,0,0,0,.21-.77,3,3,0,0,0-2.21.29m41.94.63-.63-1.26c-.2.42-.41.84.63,1.26M155.25,24.42c-.12-.53-.23-1.06-.34-1.59-.27.08-.78.2-.77.22.13.67.31,1.33,1.11,1.37M320.49,40.69c-.66-.17-1.32-.35-2-.48,0,0-.14.51-.22.78a3,3,0,0,0,2.21-.3m69.48,57,.63,1.25c.21-.41.42-.83-.63-1.25m-20-20,.5-.75c-.37,0-.75.08-.5.75M149.61,398.1l-.5.76c.38-.05.75-.09.5-.76M399.36,272.29l-.75-.5c0,.37.08.75.75.5M78.88,304.84l.75.5c0-.38-.08-.75-.75-.5M272.3,346.78c.16-.25.33-.5.5-.75C272.42,346.07,272.05,346.11,272.3,346.78Z"/><path d="M247.89,238.12c-6.32.83-12,1.61-17.7,2.53a25.29,25.29,0,0,0-5.64,1.46c-4.72,1.93-9.08,1.16-11.93-2.34-2.08-2.55-1.39-5.8,1.75-6.58,3.4-.85,6.28-3.08,10.2-2.78,2.77.22,3.51-1.88,2.66-4.84a11,11,0,0,1-.59-2.87c0-2.76-1.59-3.48-4-3.38-1.87.08-3.75,0-5.62,0-.82,0-2,.23-2.38-.2-1.88-2.21-4.79-4.55-4.89-6.95-.08-1.91,3.75-2.82,6.53-2.93,2.55-.09,5.63,0,7.49-1.34,4-2.88,7.28,1.31,11,.36.7-.18,2.61,2.09,3,3.5a43.51,43.51,0,0,1,1.33,8.82c.42,6.3,1.68,7.56,8.11,7.51,5.9,0,5.76.26,10.48,2.38,2.45,1.1,3.1,2.53,2.68,4.67s-2.48,2.76-4.35,2.91C253.53,238.27,251,238.12,247.89,238.12Z"/></g></g></svg>