<svg xmlns="http://www.w3.org/2000/svg" viewBox="0 0 469.03 479.01"><title>meter</title><g id="レイヤー_2" data-name="レイヤー 2"><g id="レイヤー_1-2" data-name="レイヤー 1"><path d="M127.74,466.53c-5.08-3-10.06-5.45-14.68-8.48-5.55-3.66-10.86-7.69-16.12-11.75a146.08,146.08,0,0,1-12.06-10.12C77,428.54,69,420.84,61.53,412.79,55.06,405.87,48.46,399,43,391.18A236.83,236.83,0,0,1,29.51,370c-2-3.7-3.23-7.85-6.19-11.06-.33-7.27-5.55-12.73-7.17-19.61-1.56-6.62-4.33-12.92-5.75-19.64-1.85-8.8-4.2-17.5-6.2-26.27a57.3,57.3,0,0,1-1.06-7.95C2.43,277,1.19,268.65.8,260.14c-.4-8.67-.9-17.32-.78-26,.05-3.53.68-7.05,1-10.59s.48-7.07.83-10.6c1.05-10.6,4-20.73,6.64-30.92,1.45-5.58,4-10.89,6.19-16.28,1.64-4,3.37-8,5.26-12a94.27,94.27,0,0,1,6.35-12.07c5.13-7.63,9-16,14.5-23.44,5.81-7.79,11.1-16,17.91-23,4.92-5.08,9.53-10.46,14.52-15.47A161.75,161.75,0,0,1,97.38,59.72c4.42-3,8.42-6.59,12.85-9.56,7.64-5.11,15.17-10.48,23.27-14.75,11.59-6.09,23.17-12.33,35.54-16.75,6.42-2.3,13.25-3.47,19.61-5.89a143.85,143.85,0,0,1,14-4c6.51-1.76,12.91-3.81,19.76-4.34,5.91-.45,11.73-2.8,17.59-2.81,7.41,0,14.8-3.35,22.23-.25a7.11,7.11,0,0,0,2.61,0,106.08,106.08,0,0,1,19.61,2c6.11,1.07,12.37,1.29,18.52,2.21,15.24,2.3,30.38,4.74,44.69,11.16,10.62,4.76,21.07,9.61,30.29,16.81a12.25,12.25,0,0,0,1.77.76c2.29,1.24,4.71,3.71,6.8,3.45,2.27-.29,4.24-3.08,6.3-4.82s7-1.44,9.3.61c1,.95.21,1.23-.21,1.91-1.55,2.48-2.85,5.14-4.53,7.54-1.11,1.59-1.09,2.75.28,4,3.69,3.34,7.52,6.53,11,10.06a114.61,114.61,0,0,1,9.92,11.1c5.78,7.51,11.26,15.25,16.82,22.92,1.84,2.54,3.65,5.11,5.25,7.8a146.44,146.44,0,0,1,13.65,31.59c1.95,6.2,4,12.38,5.54,18.68,1.86,7.49,4.16,14.86,5.06,22.6.59,5,2,10,3,15a6.13,6.13,0,0,1,0,1.05c.35,9.82,1.49,19.7.77,29.45-.47,6.34-.74,12.86-2.55,19.26-1.22,4.32-1.31,9.22-2.49,13.72-1.4,5.31-1.9,11-5.24,15.63a14,14,0,0,1-4.81,4.1c-2.48,1.28-7.15-1.81-7.68-4.8a2.17,2.17,0,0,1,.46-1.36c5.53-8.63,7.53-18.35,9-28.29.82-5.55,2.1-11,3.08-16.55a21.27,21.27,0,0,0,0-3.66V190.61c0-.7,0-1.4,0-2.1-.28-5.2-2.26-6.56-7.23-5.22a43.88,43.88,0,0,1-8.21,1.63c-1.92.14-3.91-.56-5.85-1-.44-.1-.82-.58-1.18-.93-1.23-1.21-2.43-2.43-3.65-3.65,1.3-.91,2.49-2.32,3.91-2.63a63.1,63.1,0,0,1,9.52-1.12c2.78-.17,5.6.12,8.38-.11,1-.08,1.8-.17,1.52-2.47-2-15.74-6.93-30.62-12-45.49-3.26-9.67-7-19.2-12.58-27.83-2.88-4.46-6.27-8.61-9.47-12.87-3.8-5.08-7.37-10.37-11.54-15.12-4.55-5.18-9.66-9.86-14.57-14.72-.95-.94-2.34-1.53-3.07-2.59-1.7-2.47-2.89-.87-3.71.47-1.43,2.34-3,4.78-3.63,7.38s-2.42,4.92-4.39,5c-2.53,0-5.18-1.6-7.61-2.86-.5-.26-.51-2.11-.24-3.09,1.37-5,4.47-9.15,7.81-13,1.48-1.69,1.31-2.6-.24-3.7a81,81,0,0,1-6.88-4.87c-6-5.32-13.31-8.38-20.24-12a101.59,101.59,0,0,0-23.74-8.52,199.23,199.23,0,0,0-25-4.3c-7.53-.81-15-2.68-22.41-4.07a3.11,3.11,0,0,0-.53,0L247.59,9.75a7,7,0,0,0-.79,0l-4.4.5A39.78,39.78,0,0,1,245,15c1.69,4.37,3.39,8.76,4.71,13.25a29.08,29.08,0,0,1,1,7.94c0,1.27,1.31,3.27-.94,4-2.67.83-6.43-.37-7.31-2.47-1.56-3.73-2.74-7.61-4.27-11.35s-2.31-7.38-4.84-10.62-5.68-3.21-8.86-2.73c-4.86.72-9.66,1.92-14.44,3.08-6.82,1.66-13.68,3.21-20.37,5.3-8,2.5-15.86,5.62-23.84,8.3-7.43,2.49-14.25,6.27-21,10.1-10.94,6.21-21.6,12.94-32.28,19.61-3.56,2.22-3.92,3.82-1.27,7.06,3.87,4.74,8.23,9.07,12.29,13.65A16.26,16.26,0,0,1,125.84,84c.12.25-.67,1.32-1,1.29-2.31-.28-4.56.41-7-.86-4.8-2.54-9.25-5.14-12-10.08A15.87,15.87,0,0,0,101.49,70a3.06,3.06,0,0,0-2.74.11A28.71,28.71,0,0,0,94,73.73c-8,7.63-16.71,14.76-23.87,23.15-6.5,7.61-13.24,15.08-18.95,23.49a374.87,374.87,0,0,0-22.42,37.46,24.58,24.58,0,0,0-1.46,3.07c-1.27,3.66-1.24,3.67,2.5,4.17,5.13.7,10.25,1.51,15.4,2.05,2.12.22,3.25,1,3,3.14-.16,1.59-2.43,2.65-4.32,2.58-6.07-.23-12.15-.56-18.2-.26a5,5,0,0,0-4.91,3.94c-3.08,10.49-6.38,20.89-8.33,31.7-1,5.48-1.3,11-2.17,16.44C8.66,234.86,9.71,245,9.5,255.2a110.3,110.3,0,0,0,1.07,18.44c1.35,9.13,3.38,18.16,5.15,27.22.5,2.56,1.68,3.51,3.82,2.47,3.36-1.61,7.3-2,10.13-4.72.31-.3.92-.29,1.4-.39,5.84-1.27,10.48-5.09,15.72-7.61,2.3-1.11,2.93.92,4.42.74-.37,1.2-.37,2.87-1.18,3.5a90.58,90.58,0,0,1-11,7.63c-5.21,2.94-10.72,5.34-16.07,8-4,2.05-3.94,2.21-3.09,6.68,2.59,13.49,7.45,26.22,13,38.69A216.18,216.18,0,0,0,53,390.59c2.31,3.35,5.31,6.25,8.11,9.24,6.14,6.58,12.41,13,18.49,19.65,1.7,1.84,2.59,1.89,4.5.09,5.83-5.5,12-10.7,18-16,1.91-1.68,5.11-1.87,6.42-.37,1.14,1.3,1,4.56-.58,6-2.6,2.46-5.41,4.69-8.06,7.1-1.8,1.64-3.43,3.49-5.22,5.16-2.06,2-4.18,3.79-7.41,2.91-.19-.05-1.1,1.42-1,1.56A48.75,48.75,0,0,0,91,430.79c3.73,3.17,7.64,6.11,11.34,9.31a137.14,137.14,0,0,0,31.81,20.78c5.52,2.59,11.71,3.92,17.71,5.31,4.86,1.12,10,1.09,14.82,2.29s9.88.67,14.81,1c3.36.2,6.7.85,10.06,1,2.46.08,4.8.38,7.27-1.59,1.59-1.26,5.09-.78,7.51-.2a24.71,24.71,0,0,0,19.63-3c4.93-3,10.64-4.65,16.09-6.67,2.26-.84,3.69,1.18,4.44,2.74.85,1.76,2.66,4,.25,5.93-1.79,1.42-3.77,3.39-5.8,3.57-5.27.46-9.43,3.55-14.23,5-6.94,2.18-13.79,4-21.06,1.6-.87-.28-2,.23-3,.32a66.53,66.53,0,0,1-7,.55c-1.61,0-3.22-.85-4.84-.88-8.14-.15-16.33.41-24.4-1.12-8.73-1.65-17.49-3.24-26.13-5.32C136,470.41,132.08,468.37,127.74,466.53Z"/></g></g></svg>