<svg xmlns="http://www.w3.org/2000/svg" viewBox="0 0 91.54 219.83"><title>meter2-p</title><g id="レイヤー_2" data-name="レイヤー 2"><g id="レイヤー_1-2" data-name="レイヤー 1"><path d="M74.66,148.38c6.94,3.9,12.26,9,15.63,15.79a16.51,16.51,0,0,1,1.24,7.52c-.12,6.13-.39,12.29-1.11,18.38-.31,2.53-1.74,5-3,7.35-2.21,4.24-4.91,7.9-9.69,9.87-5.36,2.2-10.22,5.46-15.85,7.23s-11.21,4.48-17.24,5.1c-3.23.33-6.49.71-9.24-2.52a7.67,7.67,0,0,0-7.38-2.88c-1,.21-2.28-.47-3.28-1a7.31,7.31,0,0,0-6.37-.58A5.6,5.6,0,0,1,11,208a3.77,3.77,0,0,0-2.89-3.67A8.7,8.7,0,0,1,3.7,201c-.56-1-2.41-2.23-.64-4.51,1.16-1.5.43-4.53-.72-6.93-3.27-6.85-3.1-13.54.42-20.59a53.57,53.57,0,0,1,14-17.79c3.25-2.66,7.67-3.89,11.58-5.69,1.05-.49,2.25-.65,3.31-1.12,1.35-.61,1.23-1.35,1-2.95-1.11-6.45-1.37-13.05-2.38-19.52-1.11-7-1.69-14.09-2.29-21.17-.51-6-1.79-11.89-2-18s-1.29-12.34-2.07-18.49c-1-8.17-2-16.36-3.26-24.49A198.64,198.64,0,0,1,18.3,13.18c-.06-2.87-1.73-5.69-.29-8.64-1.85-1.71.1-2.46.95-3.33,1.2-1.25,6.48-1.62,8-.68C29.16,2,29.5,4.16,29.17,6.58c-.1.73,0,15.24.15,15.73a22.13,22.13,0,0,1,.88,4.46A77.6,77.6,0,0,0,32.31,44.2c.85,3.69.76,7.58,1.19,11.37.23,2,.75,4,1,6,1.12,7.74,1.9,15.49,2.31,23.32.36,7,2.11,13.81,3,20.74.57,4.31.62,8.69,1.16,13,.46,3.7,1.41,7.33,1.92,11a61.85,61.85,0,0,1,.19,6.4c.16,4.76,1.45,5.72,6.21,6.19,5.07.5,10.09,1.58,15.12,2.44.46.08.93.75,1.3.67,3.41-.72,6,1.1,8.86,3m-23.42,24a22.39,22.39,0,0,1-2.15,5.38c-2.25,5.13-4.62,10.21-6.72,15.39C41,196.46,40,200,38.92,203.42c-.18.61.37,1.44.59,2.17.5-.5,1.24-.92,1.47-1.53,2.57-6.95,5.11-13.92,7.53-20.93.6-1.73.76-3.61,1.66-5.42a22,22,0,0,1,2.15-5.38,4.08,4.08,0,0,1,1.07-2.15c2.12-4.63,4.25-9.26,6.35-13.9a4.13,4.13,0,0,0,.61-1.86c-.18-1.83-1.32-2.93-3.15-2.49-2.09.49-.83,1.45-.27,2.55.35.7-.22,1.88-.37,2.84-.7,4.44-4.11,8.1-4.24,12.86a4.1,4.1,0,0,1-1.08,2.15M35.09,183.09c-.75,1.48-1.49,2.95-2.26,4.42-2.39,4.55-4.86,9.05-7.11,13.66-.45.94-.48,3.05,0,3.32,2.12,1.16,2.58-1.12,3.06-2.27,1.38-3.36,2.51-6.83,3.59-10.3.93-3,3.75-5.31,3.79-8.83l.08-1a2.19,2.19,0,0,1-1.16,1m-11.3-.53c3.79-7.75,7.69-15.44,11.27-23.28.57-1.22-.29-3.11-.55-4.67,0-.06-.91-.15-1,0a14.88,14.88,0,0,0-1.18,2.19q-8.34,17.49-16.68,35a3.62,3.62,0,0,0-.41,1.43c0,.48.13,1.38.3,1.4a2.38,2.38,0,0,0,1.78-.31,10.91,10.91,0,0,0,1.19-2.16,79.71,79.71,0,0,0,5.31-9.62m51.13-23.15c.32-2.23-1.21-2.18-2.69-2.14a3,3,0,0,0-.89.34c.25.37.41.85.75,1.07A6.76,6.76,0,0,0,74.92,159.41Z"/></g></g></svg>