<svg xmlns="http://www.w3.org/2000/svg" viewBox="0 0 147.03 185.89"><title>meter-p</title><g id="レイヤー_2" data-name="レイヤー 2"><g id="レイヤー_1-2" data-name="レイヤー 1"><path d="M134.64,13.47c5.1,6.56,8.72,13.43,10.24,21.3.66,3.39,1.48,6.75,2.05,10.16a14.22,14.22,0,0,1-.15,4.11c-.18,1.47-.75,2.9-.82,4.36a25.5,25.5,0,0,1-6.51,15.7c-5.94,7-14.27,9.23-22.44,11.72a39.06,39.06,0,0,1-8.47,1.09c-2.18.16-.73.7-.49,1.62,1.12,4.31-1.66,7.42-4,10.3-5.69,6.89-12.72,12.35-19.69,17.89-4.63,3.68-8.43,8.37-12.72,12.49-2.83,2.72-6,5.1-8.77,7.85-2,2-3.61,4.51-5.63,6.55-10,10.06-19.92,20.13-30.06,30-3.37,3.28-7.41,5.85-10.91,9a53.9,53.9,0,0,0-5.23,6.2c-2,2.5-4,2.73-6.49.72-.78-.64-1.63-1.19-2.37-1.86-1.49-1.33-2.8-2.85-1.78-5,2-4.24,4.15-8.43,6.3-12.6.89-1.74,2-3.38,2.94-5.08,2.42-4.24,4.92-8.44,7.2-12.76,1-2,1.54-4.25,2.47-6.31,1.78-4,3.68-7.91,5.54-11.87,2.47-5.27,4.71-10.66,7.46-15.78,4.16-7.72,7.29-16,12.56-23.13.88-5.92,4.48-10.73,6.64-16.13,2.1-5.25,4.16-10.51,6.32-15.74A4.74,4.74,0,0,0,57.57,54,62,62,0,0,1,52,40C48.94,29.25,54.67,15.47,64.11,9.85,69.63,6.57,75,3.39,81.4,2.16c3.39-.66,6.75-1.72,10.16-2,4.35-.35,8.74-.05,13.11-.09a41.77,41.77,0,0,1,22.51,6.4c2.74,1.68,4.82,4.45,7.46,7M115,8.48c-2.12-.35-4.26-1-6.37-1-6.5.17-13,.53-19.47,1A22.5,22.5,0,0,0,83,10.09,38.85,38.85,0,0,0,67.35,20.42c-5.43,6.13-6.94,13.23-4.43,20.95C64.77,47,67,52.61,69.35,58.08c3,7,8.13,11.44,16,12.38,3.07.36,6,1.41,9.09,2,5.1,1,10.15,2.89,15.47,1.09,1.38-.47,2.9-.58,4.26-1.1a51.11,51.11,0,0,0,12.12-6.12c7.23-5.28,8.32-13.45,9-21.36.63-7.66-1.71-15-5.07-21.93C127,16.49,122.69,11.29,115,8.48M50.42,126.55a6.4,6.4,0,0,1,0,1c-.08.55-.22,1.1-.33,1.64.46-.3,1.29-.56,1.32-.9a1.6,1.6,0,0,0-1-1.72M25.23,152.78c.56.15,1.11.3,1.68.41,0,0,.11-.43.17-.65A2.49,2.49,0,0,0,25.23,152.78Z"/><path d="M100.79,40c-.7-4.1-1.45-5.11-4-4.06-2.93,1.21-5,0-7.12-1.24-1-.58-2.54-2.09-2.35-2.52.62-1.41,1.7-3.18,3-3.61,5.28-1.75,10.85-1.24,16.31-1.11,2.66.07,5.36,4,4.57,6.86-1,3.49.23,6.64.65,9.93a3.83,3.83,0,0,1-.2,2.14c-1,1.86,0,2,1.48,2,3.14,0,6.35.36,9.42-.12,2.86-.44,4.47,1.52,6.28,2.67,2.2,1.39,1.63,3.56-1,4.74a11.32,11.32,0,0,1-4.27,1.05c-5.06.12-10.15.26-15.21,0a39.09,39.09,0,0,1-17.23-5.21c-2.92-1.64-2.72-4.48.11-6.32a5.8,5.8,0,0,1,6.93.21c2.13,1.53,2.69,1.29,2.6-1.22C100.76,42.94,100.79,41.71,100.79,40Z"/></g></g></svg>