<svg xmlns="http://www.w3.org/2000/svg" viewBox="0 0 75.18 51.2"><title>slide-switch-off</title><g id="レイヤー_2" data-name="レイヤー 2"><g id="レイヤー_1-2" data-name="レイヤー 1"><path d="M1.82,11.65C4.45,6.76,7.74,3.11,13.24,4c5,.77,10,2.93,11.93,8.13A47.13,47.13,0,0,1,27.7,24.73c.38,5,1.9,9.88.32,15.23s-6.24,10.41-11.3,8.76c-3.41-1.11-7.14-3.23-9.23-6-6.08-8.13-9.67-17.17-6-27.62.32-.93,0-2.07.35-3.42m16,12.83a50.32,50.32,0,0,1-1.18-6.94c-.08-1.91-.76-3.41-2.45-3.53-.81-.06-2,1.57-2.59,2.66-3.29,6.08-1.22,18.46,3.74,22.83.41.35,1.4.73,1.53.58a3.37,3.37,0,0,0,.91-1.92C17.82,34,17.79,29.88,17.79,24.48Z"/><path d="M49.4,46.08c.14,2.65-.71,5.71-3,5-2.09-.61-5.76-.17-6.33-4.25-.5-3.6-1.91-7.08-3-10.61C34,26.06,30.86,15.89,27.83,5.7c-.52-1.75.06-3.77,1.75-4.17,7-1.63,14.1-2.8,20.87,1.05,3.21,1.82,3.34,3.37.67,6.13-.94,1-1.64,1.74-2.72.15-.25-.36-1.1-.27-1.64-.48-3.44-1.4-6.93-.94-7.65,1-.46,1.25,2.21,7.5,3.61,8.15a35.44,35.44,0,0,0,3.85,1.28,9.34,9.34,0,0,1,2.73.91c1.48,1.12,3.11,2.52,2.22,4.62a3.47,3.47,0,0,1-4.66,1.88c-3-1.44-3.22.16-2.73,2.19C45,32,46.27,35.47,47.31,39,48,41.23,48.5,43.51,49.4,46.08Z"/><path d="M70.05,46.08c-6.24-.79-7.29-2-8.5-7.23-1.25-5.48-3.3-10.8-4.27-16.31-1.08-6.12-1.36-12.39-1.87-18.6,0-.41,1-1.35,1.42-1.3,5.08.6,10-2.06,15.29-.3,2.38.79,1.9,2.56,3.06,3.55-1.33.85-.76,4-3.68,3a8.12,8.12,0,0,0-3.11,0c-2.21.19-3.21,1.53-3,3.67.32,3.48,1.5,6.59,4.37,8.8.91.7,2.16,1,3,1.82,2.08,2,2.1,4.23-.35,5.45s-3.73,1.7-2.25,5.1c1.1,2.51.5,5.7,2.56,8.35C73.86,43.58,72.58,45.38,70.05,46.08Z"/></g></g></svg>