<svg xmlns="http://www.w3.org/2000/svg" viewBox="0 0 76.38 57.29"><title>slide-switch-p</title><g id="レイヤー_2" data-name="レイヤー 2"><g id="レイヤー_1-2" data-name="レイヤー 1"><path d="M6.25,7.54C13.63,4.69,21.06,4.9,28,2.84c4.16-1.23,8.72-1.17,13.11-1.54,4.83-.41,9.62-.09,14.52-1s10,.33,15,1.05c3.06.43,5.6,4,5.62,7.46.09,12.9.05,25.81,0,38.72,0,2.08-4,4.91-7.38,5-3.95.15-7.91-.11-11.86.09-2.34.12-4.65.83-7,1.18-2.14.32-3.94-1.28-6.56-.26s-5.87-.44-8.87-.67a12,12,0,0,0-3.37.32c-4.58,1-9.33,3.36-13.63,2.71-3.31-.5-5.35.17-8,1.25-2.32.92-7-4.37-7.09-8.06C2.36,42.14,1,35.27.87,28.21.83,23.93.13,19.41,0,15-.09,10,0,10.05,4.74,8.4a6.63,6.63,0,0,1,1.51-.86M15,32c.9-6.38,3.94-12,6.47-17.76a6.85,6.85,0,0,0,.26-1.65c-.54.18-1.29.2-1.59.57a10.37,10.37,0,0,0-1.38,2.51C16.67,20.73,14.57,25.85,12.6,31c-.09.26,1.16,1,2.42.93M57,10c2.68.59,5.34,1.25,8,1.71.67.12,1.46-.43,2.2-.68-.47-.74-.92-2.1-1.41-2.11-3.48-.09-7,.1-10.45.2.13.29.25.59,1.62.88m8.14,28.17c-.42,1.49-.91,3-1.19,4.48-.06.31.65.76,1,1.15.81-1,2-1.8,2.36-2.91.48-1.33,1.41-3.4-2.18-2.72m-36.3,6.26a2.38,2.38,0,0,0,.43.41.55.55,0,0,0,.39,0,15.79,15.79,0,0,0,.36-3.4c0-.49-.85-.93-1.31-1.38-.37.54-1,1-1.06,1.63S28,43.13,28.79,44.47Z"/></g></g></svg>