<svg xmlns="http://www.w3.org/2000/svg" viewBox="0 0 74.09 45.94"><title>slide-switch-on</title><g id="レイヤー_2" data-name="レイヤー 2"><g id="レイヤー_1-2" data-name="レイヤー 1"><path d="M32.46,4.32a22.23,22.23,0,0,1,2.92,3c1.39,2.15,1.87,4.82,4.58.48,2.26-3.64,8.14-3,11.78-.61a23.49,23.49,0,0,1,8.62,9.51c.26.53,1.15.74,1.75,1.09.17-.69.72-1.66.45-2-2.58-3.55-.64-7,.34-10.31A5.82,5.82,0,0,1,73,3.59c.67.86,1.41,2.67,1,3.19-2.18,2.84-.76,6-1.11,8.94-.53,4.4-.68,8.84-1.33,13.22-.79,5.32-5.84,7.29-10.26,4.19-5.27-3.7-7.75-9.49-11-14.7a11.68,11.68,0,0,0-1.73-1.79,8.69,8.69,0,0,0-.71,2.57c.23,4.22-.56,8.44,1,12.7.47,1.29,2.36,4.59-1.59,6s-5.53,1.16-7.77-2.84a1.06,1.06,0,0,0-1.76-.3,105.36,105.36,0,0,1-6.25,8.63c-2.29,2.58-4.9,2.86-8.81,2.26a23.46,23.46,0,0,1-15.1-8.88C2.21,30.37-.79,22.91.18,14.24c.45-4,3.44-6.46,5.78-8.77C11.23.26,18-1.2,25.29,1c2.37.71,5.39.19,7.17,3.36M22.13,32.8c4.71.71,4.39-3.63,6-6a12.09,12.09,0,0,0,1.92-10.25c-.89-2.85-3.28-5.53-5.66-7.49a7.25,7.25,0,0,0-6.13-1c-5.19,2-9.7,11.17-7.89,16.41,1.25,3.6,2.25,7.68,5.92,10,1,.63,2.31,2.15,2.81,1.9C20.13,35.88,20.73,34.47,22.13,32.8Z"/></g></g></svg>