<svg xmlns="http://www.w3.org/2000/svg" viewBox="0 0 118.97 213.04"><title>slide-switch</title><g id="レイヤー_2" data-name="レイヤー 2"><g id="レイヤー_1-2" data-name="レイヤー 1"><path d="M95.21,211.49c-10.46.42-20.35.43-30.12,1.44-4.36.45-8.49-.66-12.76-.23a52.34,52.34,0,0,1-19.07-1.27c-7.43-2-15.28-3.92-18.09-12.44-2.07-6.27-3.29-12.82-5.12-19.17-1.74-6-2-12.2-2.74-18.34-.7-5.5-.19-11-1.12-16.38-1.57-9-1.09-18.35-3.6-27.26a5.76,5.76,0,0,1,0-1.25c-.42-8.37-.7-16.76-1.28-25.13C-.38,67.25.2,43,0,18.77c0-4,1-7.14,4-9.63S9,2.49,13.58,2a16.71,16.71,0,0,0,2.78-.84,2.14,2.14,0,0,1,.62,0C38.08.76,59.18.12,80.29,0,95-.08,98.11,5.22,102.57,16.43c1.78,4.49,1.89,9.66,2.63,14.55.54,3.56.86,7.16,1.28,10.74s-.18,7.1,1,10.82c1.3,4.09.35,8.72,1.29,13.21,1.58,7.64,1.42,15.62,2.83,23.3s1.74,15.18,2.7,22.73c.78,6.15.61,12.2.9,18.29.52,10.46.38,21,1.42,31.38,1,9.67,2.56,19.27,2.31,29a131,131,0,0,1-1.23,13.25c-.38,2.94-3.19,3.32-5.3,3.95-3.75,1.11-7.64,1.73-11.46,2.59-1.71.38-3.41.83-5.74,1.24M10.08,66.9c.05,4.87.63,9.69,1,14.52.92,11.24-.37,22.6,1.4,33.88.87,5.6.43,11.41,1.45,17,1.38,7.55,1.69,15.16,2.38,22.76.45,5,.64,10.11,1.32,15.11a81.65,81.65,0,0,0,2.48,11.47c1.64,5.77,3.57,11.45,5.39,17.16a5.61,5.61,0,0,0,4.52,3.87c6.72,1,13.25,3.15,20.23,2.67,10-.7,20.09-.91,30.13-1.33a8.67,8.67,0,0,0,1.25,0c7.2-1.24,14.37-2.76,21.61-3.61,2.74-.31,3.42-1,3.28-3.54-.06-1.08.76-2.18,1-3.31a54.62,54.62,0,0,0,1.36-8.17c.08-1.68-1-3.38-1.11-5.11-.37-5.88-.35-11.73-1.06-17.65-1.27-10.57-1.06-21.32-1.5-32-.39-9.21-.76-18.42-1.28-27.63-.22-4-.66-8-1.25-12C101.54,83.13,100,75.34,99,67.49c-.73-5.63-.55-11.38-1.4-17a218,218,0,0,1-2.54-25.88c-.09-3.22-1.26-6.51-2.45-9.58-2.08-5.38-7.2-5.76-11.92-6.29a29.25,29.25,0,0,0-9.34.07c-2.93.63-5.6-.49-8.38-.15a103,103,0,0,1-10.75,1.2c-9.79.17-19.6,0-29.4.08-7.5,0-12.76,5.26-12.76,12.52C10.07,36.87,10.08,51.26,10.08,66.9Z"/></g></g></svg>