<svg xmlns="http://www.w3.org/2000/svg" viewBox="0 0 117.21 71.57"><title>slider-p</title><g id="レイヤー_2" data-name="レイヤー 2"><g id="レイヤー_1-2" data-name="レイヤー 1"><path d="M116.8,54.43c-.78,2.26-1.12,4.63-2.41,6.24-2.87,3.54-6.22,6.69-9.37,10a2.48,2.48,0,0,1-2.88.74,18.93,18.93,0,0,0-5-.53c-11.24-.34-22.48-.63-33.71-1-3.25-.1-6.5-.37-9.75-.45-3.46-.08-6.94.15-10.4,0-5.68-.33-11.34-1.13-17-1.29-3.85-.11-7.72.66-11.58.79a24.41,24.41,0,0,1-7.51-.52c-2.77-.8-3.38-3.66-4-6.18C1.87,56.75,3.06,50.93.89,45.57a6.39,6.39,0,0,1,0-1.86C.55,39.53,0,35.36,0,31.19c0-3.2.89-6.4,1-9.61.1-2.39,1.28-4.47.91-7.08C1.16,9.1,6.46,3.7,12.08,3.23c3.58-.3,7.15-.79,10.68-1.43a28.26,28.26,0,0,1,4.35-.53C33.26,1.08,39.39.31,45.54,0c3.36-.15,6.75.26,10.12.41.63,0,1.26,0,1.88,0C64.13.6,70.71.82,77.29.89c2.7,0,5.41-.49,8.1-.4,4,.14,8,.62,12,.87.86,0,1.78-.53,2.61-.4a38.64,38.64,0,0,1,6.22,1.41,60.07,60.07,0,0,1,6.58,2.79c2.53,1.18,3.44,3.41,3.47,6,0,4-.11,8,0,12.05.14,3.4.84,6.78.85,10.17,0,6.92-.26,13.85-.41,21M92.39,19c1.06-.18,1.18-.34.57-.79-1.87-1.39-3.84-2.65-5.79-3.94-.19-.13-.52,0-.78-.06.09.32.09.78.31.93,1.79,1.24,3.63,2.42,5.69,3.86M11,44.57c.71,1.48,1.38,3,2.14,4.43.13.25.63.31.95.46.07-.37.31-.82.19-1.11-.65-1.51-1.35-3-2.1-4.45a6.35,6.35,0,0,0-1.06-1.21A4.67,4.67,0,0,0,11,44.57m29.57-23-2.05-.29a7.11,7.11,0,0,0,1.39,1.45A26,26,0,0,0,42.75,24l-1.59-2.31c0-.06-.11-.11-.64-.16M7.43,27.91c.29.54.58,1.09.86,1.64.18-.56.38-1.12.54-1.68a.89.89,0,0,0,0-.46c-.19-.85-.4-1.7-.6-2.56a28.08,28.08,0,0,0-.81,3.06m44.12,1.4-1.76-.58.93,1.62a.4.4,0,0,0,.17.17c.43.17.88.33,1.32.49a7.8,7.8,0,0,0-.66-1.7m34.27-16A3.29,3.29,0,0,1,85,13c-.3-.23-.52-.71-.84-.77a6.65,6.65,0,0,0-1.66.05c.72.45,1.42.93,2.17,1.32a.9.9,0,0,0,1.12-.27M64.93,19.69l1.17-.33a21.16,21.16,0,0,0-1.53-1.85c-.13-.13-.66,0-.89.21s-.07.56.07.76a12.38,12.38,0,0,0,1.18,1.21M37.71,10.77a15.67,15.67,0,0,0,1.63-.56,3.86,3.86,0,0,0-.17-.79A4,4,0,0,0,37.71,10.77Z"/></g></g></svg>