<svg xmlns="http://www.w3.org/2000/svg" viewBox="0 0 86.03 88.01"><title>stick-h-p</title><g id="レイヤー_2" data-name="レイヤー 2"><g id="レイヤー_1-2" data-name="レイヤー 1"><path d="M85.44,55.3c-2.38,6.36-5.1,12-10.22,15.74-7.09,5.14-14.13,10.29-22.66,13.27-4.49,1.56-8.63,4.65-13.51,3.42a52.66,52.66,0,0,1-16.51-7c-5.87-3.88-8.57-10-12.19-15.55-2.47-3.75-4.92-7.53-7.12-11.45A25.65,25.65,0,0,1,.13,43.11C-.83,32.23,3.83,23.78,10.32,16c3.48-4.2,6.83-9,11.3-11.77a28.09,28.09,0,0,1,22.93-3c2.68.74,5.66.34,8.37,1,8.76,2.17,15.39,8,20.68,14.69,3.88,4.94,7.73,10.13,9.65,16.6,2.38,8,3.57,13.7,2.19,21.82M16.59,53.42l-1.5-1.88L12.85,53.4c.68.27,1.35.57,2,.81s1.13.31,1.7-.79M9.08,35.89c0,.59-.23,1.36.05,1.73A7.71,7.71,0,0,0,11,39c-.17-.56-.33-1.12-.53-1.67S10,35.94,9.08,35.89Z"/></g></g></svg>