<svg xmlns="http://www.w3.org/2000/svg" viewBox="0 0 84.84 76.06"><title>stick-v-p</title><g id="レイヤー_2" data-name="レイヤー 2"><g id="レイヤー_1-2" data-name="レイヤー 1"><path d="M28.28,1.67C41.59-1.7,53.83,0,65.41,6.82c8.3,4.87,15.46,11,17.77,20.55A61.74,61.74,0,0,1,84,51.83C81.91,64.94,73,69.91,62.35,73.12c-5,1.51-10.22,3.63-15.77,2.71-4.48-.74-8.94-1.55-13.42-2.29a13.52,13.52,0,0,0-3-.19c-6.92.44-12.29-2.63-17-7.33L6.51,59.39c-2.15-2.13-3.92-4.26-4.31-7.62C1.49,45.62-1.4,39.88.84,33.24c1.27-3.78,0-8.1,2.59-12.1,6-9.35,13-17.1,24.85-19.47M51.13,66.45c1.16.77,1.85,3.19,3.8,1.16.39-.41.8-1.36.6-1.67C54.4,64.2,53.07,64.05,51.13,66.45Z"/></g></g></svg>