<svg xmlns="http://www.w3.org/2000/svg" viewBox="0 0 244.38 115.29"><title>stick-h</title><g id="レイヤー_2" data-name="レイヤー 2"><g id="レイヤー_1-2" data-name="レイヤー 1"><path d="M181.48,6.18c11.13.56,20.41,4.71,28.68,10.73a194.88,194.88,0,0,1,18.91,16.3c7.6,7.2,11.23,16.87,14.83,26.36,1,2.61.28,6.16-.44,9.08-1.63,6.57-3.82,13-5.9,19.46-4.37,13.41-18.86,20.29-28.4,21-12.17.93-24.34,0-36.4,1.16-9.25.86-18.58,1.37-27.73,2.58-17.18,2.26-34.34,2.25-51.55,2.16-4.63,0-9.38-1.65-13.85-1-9.23,1.32-18.47.56-27.65,1.23-4.17.31-7.35-1.51-10.85-2.71-5.7-2-11.71-2.5-17.43-4.72A24.4,24.4,0,0,1,11,96.73,83.07,83.07,0,0,1,1.48,73.16C0,66.71-.15,59.78.11,53.11S4.57,40.74,8,35.2c4.29-6.87,10.42-11.71,17.71-15.67A140,140,0,0,1,55.32,7.82,75.08,75.08,0,0,1,64,6.19C72.68,4.9,81.31,3.3,90,2.52c9.59-.85,19.26-.86,28.88-1.38,4.22-.23,8.42-1.2,12.62-1.14,8.38.14,16.8.37,25.12,1.28,7.83.86,15.56,2.63,23.33,4,.34.06.6.56,1.52.86M77,103.83c3.75,0,7.51-.08,11.26,0,3.54.09,7.07.53,10.6.52,4.33,0,8.65-.3,13-.56,9.83-.58,19.64.32,29.55-.94s20.14-1.64,30.22-2.66c10.4-1,20.92-.8,31.36-1.47,4.3-.28,8.82-.8,12.75-2.4,6-2.43,10.93-6.48,13.4-12.87,2-5.21,4.4-10.29,6.15-15.59.9-2.73,1.65-6,.92-8.68a46.63,46.63,0,0,0-5.62-12c-5.63-8.89-14-15-22.45-21-4.3-3-8.51-6.13-13.75-7.57-10.46-2.89-21.14-4.56-31.83-6.19-4.17-.63-8.64-.15-12.56-1.44-7.1-2.34-14.6.44-21.55-2.32a2.39,2.39,0,0,0-1.84,0c-3.42,2.09-7.17,1-10.77,1.2-7.12.46-14.28.54-21.36,1.35-7.66.88-15.2,3-22.86,3.51A97.88,97.88,0,0,0,46.73,20C30,25.52,16.49,35,9,51.62a11.73,11.73,0,0,0-1.46,3.76C6.66,69,8.7,82,16.66,93.45c1.38,2,3.57,3.3,6.23,4.42C28.79,100.35,35,101,41,102.5c4.39,1.06,8.51,3.18,13.35,2.67C61.42,104.4,68.57,104.24,77,103.83Z"/></g></g></svg>